<?xml version="1.0" encoding="UTF-8" standalone="no"?>
<svg
   xmlns:dc="http://purl.org/dc/elements/1.1/"
   xmlns:cc="http://creativecommons.org/ns#"
   xmlns:rdf="http://www.w3.org/1999/02/22-rdf-syntax-ns#"
   xmlns:svg="http://www.w3.org/2000/svg"
   xmlns="http://www.w3.org/2000/svg"
   xmlns:sodipodi="http://sodipodi.sourceforge.net/DTD/sodipodi-0.dtd"
   xmlns:inkscape="http://www.inkscape.org/namespaces/inkscape"
   viewBox="0 0 750 750"
   version="1.1"
   id="svg380"
   sodipodi:docname="development2_accent.svg"
   width="750"
   height="750"
   inkscape:version="1.0.1 (3bc2e813f5, 2020-09-07)">
  <metadata
     id="metadata386">
    <rdf:RDF>
      <cc:Work
         rdf:about="">
        <dc:format>image/svg+xml</dc:format>
        <dc:type
           rdf:resource="http://purl.org/dc/dcmitype/StillImage" />
        <dc:title></dc:title>
      </cc:Work>
    </rdf:RDF>
  </metadata>
  <defs
     id="defs384" />
  <sodipodi:namedview
     pagecolor="#ffffff"
     bordercolor="#666666"
     borderopacity="1"
     objecttolerance="10"
     gridtolerance="10"
     guidetolerance="10"
     inkscape:pageopacity="0"
     inkscape:pageshadow="2"
     inkscape:window-width="1920"
     inkscape:window-height="1001"
     id="namedview382"
     showgrid="false"
     inkscape:zoom="0.848"
     inkscape:cx="615.64214"
     inkscape:cy="404.67155"
     inkscape:window-x="-9"
     inkscape:window-y="-9"
     inkscape:window-maximized="1"
     inkscape:current-layer="svg380" />
  <g
     id="freepik--background-simple--inject-20"
     transform="translate(0,128.56892)">
    <path
       d="m 706.09,271 a 191,191 0 0 0 -10.37,-48.66 c -11.18,-31.38 -36.17,-87.87 -83,-134 C 543.89,20.48 399.35,20.48 317.72,84.09 236.09,147.7 244,173.11 184,176.29 124,179.47 74.86,173.11 42.41,215.52 9.96,257.93 -15.76,352.39 48.31,400 c 64.07,47.61 117.92,34.85 179,36 61.08,1.15 103.25,28.63 202.56,28.63 99.31,0 191.69,7.45 242.82,-46.63 36.48,-38.56 36.42,-109.51 33.4,-147 z"
       style="fill:#dbdac7"
       id="path2" />
    <path
       d="m 706.09,271 a 191,191 0 0 0 -10.37,-48.66 c -11.18,-31.38 -36.17,-87.87 -83,-134 C 543.89,20.48 399.35,20.48 317.72,84.09 236.09,147.7 244,173.11 184,176.29 124,179.47 74.86,173.11 42.41,215.52 9.96,257.93 -15.76,352.39 48.31,400 c 64.07,47.61 117.92,34.85 179,36 61.08,1.15 103.25,28.63 202.56,28.63 99.31,0 191.69,7.45 242.82,-46.63 36.48,-38.56 36.42,-109.51 33.4,-147 z"
       style="opacity:0.7;fill:#ffffff"
       id="path4" />
  </g>
  <g
     id="freepik--Window--inject-20"
     transform="translate(0,128.56892)">
    <g
       style="opacity:0.3"
       id="g91">
      <path
         d="M 521,21.21 V 322 h 97.7 V 21.21 Z m 92.78,6.69 V 72.29 H 573.07 V 27.9 Z M 567,27.9 V 72.29 H 525.87 V 27.9 Z M 525.87,79.33 H 567 v 44.05 h -41.13 z m 87.86,236 H 525.87 V 131 h 87.86 z M 573.07,123.38 v -44 h 40.66 v 44.05 z"
         style="fill:none;stroke:#000000;stroke-linecap:round;stroke-linejoin:round"
         id="path7" />
      <path
         d="M 618.27,21.21 V 322 H 716 V 21.21 Z m 92.79,6.69 V 72.29 H 670.39 V 27.9 Z m -46.74,0 V 72.29 H 623.19 V 27.9 Z m -41.13,51.43 h 41.13 v 44.05 h -41.13 z m 87.87,236 H 623.19 V 131 h 87.87 z M 670.39,123.38 v -44 h 40.67 v 44.05 z"
         style="fill:none;stroke:#000000;stroke-linecap:round;stroke-linejoin:round"
         id="path9" />
      <line
         x1="591.85999"
         y1="180.95"
         x2="567.33002"
         y2="211.48"
         style="fill:none;stroke:#000000;stroke-linecap:round;stroke-linejoin:round"
         id="line11" />
      <line
         x1="597.95001"
         y1="173.37"
         x2="594.04999"
         y2="178.22"
         style="fill:none;stroke:#000000;stroke-linecap:round;stroke-linejoin:round"
         id="line13" />
      <line
         x1="540.65997"
         y1="233.74001"
         x2="535.64001"
         y2="239.64999"
         style="fill:none;stroke:#000000;stroke-linecap:round;stroke-linejoin:round"
         id="line15" />
      <line
         x1="573.23999"
         y1="195.46001"
         x2="544.41998"
         y2="229.32001"
         style="fill:none;stroke:#000000;stroke-linecap:round;stroke-linejoin:round"
         id="line17" />
      <line
         x1="690.70001"
         y1="190.27"
         x2="666.16998"
         y2="220.8"
         style="fill:none;stroke:#000000;stroke-linecap:round;stroke-linejoin:round"
         id="line19" />
      <line
         x1="696.78998"
         y1="182.69"
         x2="692.89001"
         y2="187.55"
         style="fill:none;stroke:#000000;stroke-linecap:round;stroke-linejoin:round"
         id="line21" />
      <line
         x1="639.5"
         y1="243.06"
         x2="634.47998"
         y2="248.97"
         style="fill:none;stroke:#000000;stroke-linecap:round;stroke-linejoin:round"
         id="line23" />
      <line
         x1="672.08002"
         y1="204.78"
         x2="643.26001"
         y2="238.64999"
         style="fill:none;stroke:#000000;stroke-linecap:round;stroke-linejoin:round"
         id="line25" />
      <line
         x1="702.03003"
         y1="34.869999"
         x2="690.28998"
         y2="49.490002"
         style="fill:none;stroke:#000000;stroke-linecap:round;stroke-linejoin:round"
         id="line27" />
      <line
         x1="704.94"
         y1="31.25"
         x2="703.07001"
         y2="33.57"
         style="fill:none;stroke:#000000;stroke-linecap:round;stroke-linejoin:round"
         id="line29" />
      <line
         x1="677.52002"
         y1="60.139999"
         x2="675.12"
         y2="62.970001"
         style="fill:none;stroke:#000000;stroke-linecap:round;stroke-linejoin:round"
         id="line31" />
      <line
         x1="693.10999"
         y1="41.82"
         x2="679.32001"
         y2="58.029999"
         style="fill:none;stroke:#000000;stroke-linecap:round;stroke-linejoin:round"
         id="line33" />
      <line
         x1="656.21002"
         y1="34.869999"
         x2="644.46997"
         y2="49.490002"
         style="fill:none;stroke:#000000;stroke-linecap:round;stroke-linejoin:round"
         id="line35" />
      <line
         x1="659.12"
         y1="31.25"
         x2="657.26001"
         y2="33.57"
         style="fill:none;stroke:#000000;stroke-linecap:round;stroke-linejoin:round"
         id="line37" />
      <line
         x1="631.70001"
         y1="60.139999"
         x2="629.29999"
         y2="62.970001"
         style="fill:none;stroke:#000000;stroke-linecap:round;stroke-linejoin:round"
         id="line39" />
      <line
         x1="647.29999"
         y1="41.82"
         x2="633.5"
         y2="58.029999"
         style="fill:none;stroke:#000000;stroke-linecap:round;stroke-linejoin:round"
         id="line41" />
      <line
         x1="656.21002"
         y1="89.620003"
         x2="644.46997"
         y2="104.23"
         style="fill:none;stroke:#000000;stroke-linecap:round;stroke-linejoin:round"
         id="line43" />
      <line
         x1="659.12"
         y1="85.989998"
         x2="657.26001"
         y2="88.32"
         style="fill:none;stroke:#000000;stroke-linecap:round;stroke-linejoin:round"
         id="line45" />
      <line
         x1="631.70001"
         y1="114.89"
         x2="629.29999"
         y2="117.72"
         style="fill:none;stroke:#000000;stroke-linecap:round;stroke-linejoin:round"
         id="line47" />
      <line
         x1="647.29999"
         y1="96.57"
         x2="633.5"
         y2="112.78"
         style="fill:none;stroke:#000000;stroke-linecap:round;stroke-linejoin:round"
         id="line49" />
      <line
         x1="697.07001"
         y1="89.620003"
         x2="685.33002"
         y2="104.23"
         style="fill:none;stroke:#000000;stroke-linecap:round;stroke-linejoin:round"
         id="line51" />
      <line
         x1="699.98999"
         y1="85.989998"
         x2="698.12"
         y2="88.32"
         style="fill:none;stroke:#000000;stroke-linecap:round;stroke-linejoin:round"
         id="line53" />
      <line
         x1="672.57001"
         y1="114.89"
         x2="670.15997"
         y2="117.72"
         style="fill:none;stroke:#000000;stroke-linecap:round;stroke-linejoin:round"
         id="line55" />
      <line
         x1="688.15997"
         y1="96.57"
         x2="674.37"
         y2="112.78"
         style="fill:none;stroke:#000000;stroke-linecap:round;stroke-linejoin:round"
         id="line57" />
      <line
         x1="605.44"
         y1="34.869999"
         x2="593.70001"
         y2="49.490002"
         style="fill:none;stroke:#000000;stroke-linecap:round;stroke-linejoin:round"
         id="line59" />
      <line
         x1="608.34998"
         y1="31.25"
         x2="606.48999"
         y2="33.57"
         style="fill:none;stroke:#000000;stroke-linecap:round;stroke-linejoin:round"
         id="line61" />
      <line
         x1="580.92999"
         y1="60.139999"
         x2="578.53003"
         y2="62.970001"
         style="fill:none;stroke:#000000;stroke-linecap:round;stroke-linejoin:round"
         id="line63" />
      <line
         x1="596.53003"
         y1="41.82"
         x2="582.72998"
         y2="58.029999"
         style="fill:none;stroke:#000000;stroke-linecap:round;stroke-linejoin:round"
         id="line65" />
      <line
         x1="605.44"
         y1="88.349998"
         x2="593.70001"
         y2="102.96"
         style="fill:none;stroke:#000000;stroke-linecap:round;stroke-linejoin:round"
         id="line67" />
      <line
         x1="608.34998"
         y1="84.720001"
         x2="606.48999"
         y2="87.040001"
         style="fill:none;stroke:#000000;stroke-linecap:round;stroke-linejoin:round"
         id="line69" />
      <line
         x1="580.92999"
         y1="113.62"
         x2="578.53003"
         y2="116.44"
         style="fill:none;stroke:#000000;stroke-linecap:round;stroke-linejoin:round"
         id="line71" />
      <line
         x1="596.53003"
         y1="95.290001"
         x2="582.72998"
         y2="111.5"
         style="fill:none;stroke:#000000;stroke-linecap:round;stroke-linejoin:round"
         id="line73" />
      <line
         x1="560.85999"
         y1="88.349998"
         x2="549.12"
         y2="102.96"
         style="fill:none;stroke:#000000;stroke-linecap:round;stroke-linejoin:round"
         id="line75" />
      <line
         x1="563.77002"
         y1="84.720001"
         x2="561.90997"
         y2="87.040001"
         style="fill:none;stroke:#000000;stroke-linecap:round;stroke-linejoin:round"
         id="line77" />
      <line
         x1="536.34998"
         y1="113.62"
         x2="533.95001"
         y2="116.44"
         style="fill:none;stroke:#000000;stroke-linecap:round;stroke-linejoin:round"
         id="line79" />
      <line
         x1="551.95001"
         y1="95.290001"
         x2="538.15002"
         y2="111.5"
         style="fill:none;stroke:#000000;stroke-linecap:round;stroke-linejoin:round"
         id="line81" />
      <line
         x1="557.76001"
         y1="34.869999"
         x2="546.02002"
         y2="49.490002"
         style="fill:none;stroke:#000000;stroke-linecap:round;stroke-linejoin:round"
         id="line83" />
      <line
         x1="560.67999"
         y1="31.25"
         x2="558.81"
         y2="33.57"
         style="fill:none;stroke:#000000;stroke-linecap:round;stroke-linejoin:round"
         id="line85" />
      <line
         x1="533.26001"
         y1="60.139999"
         x2="530.84998"
         y2="62.970001"
         style="fill:none;stroke:#000000;stroke-linecap:round;stroke-linejoin:round"
         id="line87" />
      <line
         x1="548.84998"
         y1="41.82"
         x2="535.06"
         y2="58.029999"
         style="fill:none;stroke:#000000;stroke-linecap:round;stroke-linejoin:round"
         id="line89" />
    </g>
  </g>
  <g
     id="freepik--Picture--inject-20"
     transform="translate(0,128.56892)">
    <g
       style="opacity:0.3"
       id="g112">
      <rect
         x="75.040001"
         y="23"
         width="166.96001"
         height="136.5"
         style="fill:none;stroke:#000000;stroke-linecap:round;stroke-linejoin:round"
         id="rect94" />
      <circle
         cx="169.24001"
         cy="135.25"
         r="10.72"
         transform="rotate(-22.5,169.24105,135.23634)"
         style="fill:none;stroke:#000000;stroke-linecap:round;stroke-linejoin:round"
         id="circle96" />
      <path
         d="m 178.83,65.3 a 5.08,5.08 0 1 1 -5.08,-5.07 5.08,5.08 0 0 1 5.08,5.07 z"
         style="fill:none;stroke:#000000;stroke-linecap:round;stroke-linejoin:round"
         id="path98" />
      <circle
         cx="86.32"
         cy="85.050003"
         r="3.3800001"
         style="fill:none;stroke:#000000;stroke-linecap:round;stroke-linejoin:round"
         id="circle100" />
      <circle
         cx="117.91"
         cy="130.17"
         r="5.6399999"
         style="fill:none;stroke:#000000;stroke-linecap:round;stroke-linejoin:round"
         id="circle102" />
      <path
         d="m 242,140.15 -5.86,-3.22 C 200.94,117.59 198.08,68.1 230.82,44.82 l 11.18,-8"
         style="fill:none;stroke:#000000;stroke-linecap:round;stroke-linejoin:round"
         id="path104" />
      <path
         d="m 145.46,159.5 a 145.23,145.23 0 0 1 3.65,-85.09 C 156.94,52 165.84,35.3 174.22,23"
         style="fill:none;stroke:#000000;stroke-linecap:round;stroke-linejoin:round"
         id="path106" />
      <path
         d="M 104.59,159.5 C 101.91,139.25 101.53,102.13 121.72,57.29 128.32,42.61 134.65,31.47 140.49,23"
         style="fill:none;stroke:#000000;stroke-linecap:round;stroke-linejoin:round"
         id="path108" />
      <path
         d="M 75,64.94 C 85,52.85 98.79,36.29 110.5,23"
         style="fill:none;stroke:#000000;stroke-linecap:round;stroke-linejoin:round"
         id="path110" />
    </g>
  </g>
  <g
     id="freepik--Plant--inject-20"
     transform="translate(0,128.56892)">
    <line
       x1="98.760002"
       y1="386.64001"
       x2="98.760002"
       y2="283.81"
       style="fill:none;stroke:#5e5e5e;stroke-width:4px;stroke-miterlimit:10"
       id="line115" />
    <line
       x1="85.970001"
       y1="388.70999"
       x2="85.970001"
       y2="246.7"
       style="fill:none;stroke:#5e5e5e;stroke-width:4px;stroke-miterlimit:10"
       id="line117" />
    <line
       x1="114.98"
       y1="389.41"
       x2="114.98"
       y2="339.53"
       style="fill:none;stroke:#5e5e5e;stroke-width:4px;stroke-miterlimit:10"
       id="line119" />
    <path
       d="m 81,260.7 c 0,0 -2.57,-4.7 -11.13,-15 -8.56,-10.3 -44.07,-38.05 -44.07,-38.05 0,0 20.11,10.7 26.53,16.26 6.42,5.56 15,12.41 15,12.41 0,0 -24,-26.1 -26.53,-27.82 -2.53,-1.72 24.37,20.5 24.37,20.5 0,0 -10.27,-20.5 -15.41,-27.34 -5.14,-6.84 -15,-23.11 -15,-23.11 0,0 27.81,37.23 29.09,39.37 1.28,2.14 6.85,11.55 6.85,11.55 l -9.81,-25.67 12,21 c 0,0 -17.12,-35.51 -18,-37.22 -0.88,-1.71 12,16.69 12,16.69 l -11.14,-33.42 25.68,52.63 -1.71,-20.54 4.7,21.4 1.29,-52.63 3,52.2 c 0,0 4.71,-33.38 5.56,-40.22 0.85,-6.84 1.29,-14.12 1.29,-14.12 0,0 -0.86,45.35 -0.86,46.64 0,1.29 -0.86,11.55 -0.86,11.55 L 102,203.37 c 1.72,-5.13 3.43,-22.68 4.28,-25.24 0.85,-2.56 -4.28,39.36 -4.7,41.07 a 49.73,49.73 0 0 1 -3,8.13 c -1.28,2.57 9.41,-15.4 13.27,-23.1 L 122.93,182 c 0,0 -6.42,21.39 -8.13,25.24 -1.71,3.85 -12.8,24.37 -12.8,24.37 0,0 16.69,-19.68 24,-24.82 7.31,-5.14 20.54,-15 20.54,-15 0,0 -21.39,23.1 -25.67,27.38 -4.28,4.28 -16.69,19.25 -16.69,19.25 0,0 21.4,-13.69 22.68,-15 1.28,-1.31 16.69,-11.12 16.69,-11.12 0,0 -31.14,24.59 -32.55,26.15 -12.46,13.27 -16.74,19.69 -19.3,22.25 -2.56,2.56 -6.85,3.85 -10.7,0 z"
       style="fill:#dbdac7"
       id="path121" />
    <path
       d="m 95.77,298.21 c 0,0 -1.77,-3.33 -7.87,-10.59 -6.1,-7.26 -31.18,-26.94 -31.18,-26.94 0,0 14.23,7.57 18.77,11.5 4.54,3.93 10.59,8.82 10.59,8.82 0,0 -17,-18.46 -18.76,-19.67 -1.76,-1.21 17.25,14.53 17.25,14.53 0,0 -7.27,-14.53 -10.9,-19.37 -3.63,-4.84 -10.59,-16.39 -10.59,-16.39 0,0 19.67,26.33 20.58,27.9 0.91,1.57 4.84,8.17 4.84,8.17 l -7,-18.16 8.5,14.78 c 0,0 -12.09,-25.12 -12.7,-26.33 -0.61,-1.21 8.48,11.8 8.48,11.8 l -7.87,-23.6 18.16,37.22 -1.21,-14.53 3.33,15.14 0.9,-37.23 2.12,36.92 c 0,0 3.33,-23.6 3.94,-28.44 0.61,-4.84 0.91,-10 0.91,-10 0,0 -0.61,32.08 -0.61,33 0,0.92 -0.61,8.17 -0.61,8.17 l 5.75,-17.25 c 1.22,-3.63 2.43,-16 3,-17.86 0.57,-1.86 -3,27.84 -3.33,29.06 a 34.4,34.4 0 0 1 -2.12,5.75 c -0.9,1.81 6.66,-10.9 9.39,-16.35 l 7.86,-15.73 c 0,0 -4.54,15.13 -5.75,17.85 -1.21,2.72 -9.08,17.25 -9.08,17.25 0,0 11.81,-13.92 17,-17.55 5.19,-3.63 14.53,-10.59 14.53,-10.59 0,0 -15.13,16.34 -18.16,19.37 -3.03,3.03 -11.8,13.61 -11.8,13.61 0,0 15.13,-9.68 16,-10.59 C 129,270.97 140,264 140,264 c 0,0 -22,17.36 -23,18.46 -8.78,9.39 -11.8,13.93 -13.62,15.74 a 5,5 0 0 1 -7.61,0.01 z"
       style="fill:#dbdac7"
       id="path123" />
    <path
       d="m 111.17,341.43 c 0,0 -1.82,-3.33 -7.87,-10.6 -6.05,-7.27 -31.17,-26.93 -31.17,-26.93 0,0 14.22,7.56 18.76,11.5 4.54,3.94 10.59,8.78 10.59,8.78 0,0 -16.94,-18.47 -18.76,-19.68 C 80.9,303.29 100,319 100,319 c 0,0 -7.26,-14.53 -10.89,-19.37 -3.63,-4.84 -10.6,-16.34 -10.6,-16.34 0,0 19.67,26.33 20.58,27.84 0.91,1.51 4.84,8.17 4.84,8.17 l -7,-18.16 8.49,14.86 c 0,0 -12.11,-25.12 -12.71,-26.33 -0.6,-1.21 8.47,11.81 8.47,11.81 l -7.87,-23.61 18.16,37.23 -1.21,-14.53 3.33,15.13 0.91,-37.22 2.12,36.92 c 0,0 3.38,-23.61 3.93,-28.4 0.55,-4.79 0.91,-10 0.91,-10 0,0 -0.61,32.08 -0.61,33 0,0.92 -0.6,8.17 -0.6,8.17 l 5.75,-17.3 c 1.21,-3.63 2.42,-16 3,-17.85 0.58,-1.85 -3,27.84 -3.32,29.05 a 36.28,36.28 0 0 1 -2.12,5.75 c -0.91,1.82 6.66,-10.89 9.38,-16.34 2.72,-5.45 7.87,-15.74 7.87,-15.74 0,0 -4.54,15.13 -5.75,17.86 -1.21,2.73 -9.06,17.25 -9.06,17.25 0,0 11.8,-13.92 16.95,-17.56 5.15,-3.64 14.52,-10.59 14.52,-10.59 0,0 -15.13,16.3 -18.16,19.37 -3.03,3.07 -11.8,13.62 -11.8,13.62 0,0 15.13,-9.69 16,-10.59 0.87,-0.9 11.8,-7.87 11.8,-7.87 0,0 -22,17.35 -23,18.46 -8.77,9.38 -11.8,13.92 -13.62,15.74 a 5,5 0 0 1 -7.52,0 z"
       style="fill:#dbdac7"
       id="path125" />
    <path
       d="m 130.32,422.69 c 0,20.2 -5.31,38 -13.43,48.81 h -36 c -8.11,-10.77 -13.43,-28.61 -13.43,-48.81 0,-1.77 0,-3.52 0.12,-5.24 A 107.75,107.75 0 0 1 69,404.4 c 0.27,-1.58 0.57,-3.14 0.91,-4.66 0.28,-1.27 0.57,-2.5 0.9,-3.73 A 73.13,73.13 0 0 1 76.7,380.5 h 44.38 A 73.67,73.67 0 0 1 127,396 c 0.33,1.23 0.63,2.46 0.91,3.73 0.33,1.52 0.63,3.08 0.9,4.66 a 107.75,107.75 0 0 1 1.39,13.05 c 0.08,1.73 0.12,3.48 0.12,5.25 z"
       style="fill:#ffffff;stroke:#263238;stroke-miterlimit:10"
       id="path127" />
    <path
       d="M 127,396 H 70.77 c -0.33,1.23 -0.62,2.46 -0.9,3.73 h 58 c -0.24,-1.26 -0.54,-2.49 -0.87,-3.73 z m 1.81,8.39 H 69 a 107.75,107.75 0 0 0 -1.39,13.05 h 62.59 a 107.75,107.75 0 0 0 -1.39,-13.04 z"
       style="fill:#263238;stroke:#263238;stroke-miterlimit:10"
       id="path129" />
  </g>
  <g
     id="freepik--trash-bin--inject-20"
     transform="translate(0,128.56892)">
    <path
       d="m 148,377 4,-8.67 9.33,-4 8,1.34 4,3.33 a 8,8 0 0 1 0.67,3.33 c 0,2 -2,4.67 -2,4.67 a 51,51 0 0 1 -4,4.67 c -2,2 -2.67,2 -4.67,3.33 a 9.55,9.55 0 0 1 -4.66,1.33 c 0,0 -9.34,-2 -10.67,-9.33 z"
       style="fill:#ffffff;stroke:#263238;stroke-miterlimit:10"
       id="path132" />
    <polyline
       points="148 377 159.29 370.46 168.12 373.08 165.5 378.64 161.25 382.24 158.31 384.53 163.33 385"
       style="fill:none;stroke:#263238;stroke-miterlimit:10"
       id="polyline134" />
    <polyline
       points="159.29 370.46 161.33 364.33 173.33 369 170.74 377.66 165.5 378.64"
       style="fill:none;stroke:#263238;stroke-miterlimit:10"
       id="polyline136" />
    <polyline
       points="152.41 375.04 152.41 379.63 158.31 382.57 159.94 376.68 156.67 375.7 155.36 377.33"
       style="fill:none;stroke:#263238;stroke-miterlimit:10"
       id="polyline138" />
    <path
       d="m 174.65,353.48 9.31,2.1 5.86,8.29 0.37,8.1 -2.42,4.61 a 8.17,8.17 0 0 1 -3.12,1.35 c -2,0.42 -5,-1 -5,-1 a 50.73,50.73 0 0 1 -5.4,-2.94 c -2.38,-1.54 -2.52,-2.19 -4.24,-3.86 a 9.6,9.6 0 0 1 -2.28,-4.29 c 0,0 0.03,-9.53 6.92,-12.36 z"
       style="fill:#ffffff;stroke:#263238;stroke-miterlimit:10"
       id="path140" />
    <polyline
       points="174.65 353.48 183.4 363.15 182.69 372.34 176.7 370.94 172.29 367.53 169.44 365.13 170.03 370.14"
       style="fill:none;stroke:#263238;stroke-miterlimit:10"
       id="polyline142" />
    <polyline
       points="183.4 363.15 189.82 363.87 187.77 376.58 178.76 375.86 176.7 370.94"
       style="fill:none;stroke:#263238;stroke-miterlimit:10"
       id="polyline144" />
    <polyline
       points="177.49 357.39 173.01 358.34 171.36 364.72 177.46 365.09 177.74 361.68 175.86 360.75"
       style="fill:none;stroke:#263238;stroke-miterlimit:10"
       id="polyline146" />
    <path
       d="m 216.44,453.84 9.07,-3 9.28,4.13 4.46,6.77 0.28,5.2 a 8.13,8.13 0 0 1 -2,2.76 c -1.46,1.36 -4.78,1.7 -4.78,1.7 a 50.36,50.36 0 0 1 -6.14,0.24 c -2.83,-0.11 -3.28,-0.59 -5.62,-1.16 a 9.62,9.62 0 0 1 -4.15,-2.51 c 0,0 -4.84,-8.17 -0.4,-14.13 z"
       style="fill:#ffffff;stroke:#263238;stroke-miterlimit:10"
       id="path148" />
    <polyline
       points="216.44 453.84 228.9 457.68 232.99 465.94 227.13 467.8 221.6 467.12 217.92 466.52 220.99 470.52"
       style="fill:none;stroke:#263238;stroke-miterlimit:10"
       id="polyline150" />
    <polyline
       points="228.9 457.68 234.79 455.01 239.53 466.98 231.41 470.97 227.13 467.8"
       style="fill:none;stroke:#263238;stroke-miterlimit:10"
       id="polyline152" />
    <polyline
       points="220.87 455.75 217.51 458.86 219.36 465.19 224.79 462.38 223.28 459.31 221.19 459.47"
       style="fill:none;stroke:#263238;stroke-miterlimit:10"
       id="polyline154" />
    <path
       d="m 209.09,383.69 -9,3.14 -9.36,-3.94 -4.59,-6.69 -0.38,-5.19 a 8.1,8.1 0 0 1 1.93,-2.79 c 1.44,-1.39 4.75,-1.8 4.75,-1.8 a 50.56,50.56 0 0 1 6.14,-0.37 c 2.83,0.05 3.29,0.53 5.64,1.05 a 9.58,9.58 0 0 1 4.2,2.43 c 0,0 5.02,8.1 0.67,14.16 z"
       style="fill:#ffffff;stroke:#263238;stroke-miterlimit:10"
       id="path156" />
    <polyline
       points="209.09 383.69 196.54 380.1 192.29 371.93 198.12 369.95 203.66 370.51 207.35 371.04 204.2 367.1"
       style="fill:none;stroke:#263238;stroke-miterlimit:10"
       id="polyline158" />
    <polyline
       points="196.54 380.1 190.71 382.89 185.74 371.01 193.77 366.86 198.12 369.95"
       style="fill:none;stroke:#263238;stroke-miterlimit:10"
       id="polyline160" />
    <polyline
       points="204.61 381.87 207.91 378.69 205.94 372.4 200.56 375.31 202.13 378.35 204.22 378.16"
       style="fill:none;stroke:#263238;stroke-miterlimit:10"
       id="polyline162" />
    <polygon
       points="216.86,373.2 144.19,373.2 151.46,471.29 209.59,471.29 "
       style="fill:#dbdac7;stroke:#263238;stroke-miterlimit:10"
       id="polygon164" />
  </g>
  <g
     id="freepik--Device--inject-20"
     transform="translate(0,128.56892)">
    <polygon
       points="327.77,251.05 328.87,269.25 330.38,294.39 287.03,294.39 288.54,269.25 289.63,251.05 "
       style="fill:#ffffff;stroke:#263238;stroke-miterlimit:10"
       id="polygon167" />
    <polygon
       points="328.87,269.25 288.54,269.25 289.63,251.05 327.77,251.05 "
       style="fill:#263238;stroke:#263238;stroke-miterlimit:10"
       id="polygon169" />
    <rect
       x="275.76001"
       y="290.06"
       width="65.889999"
       height="6.9400001"
       style="fill:#ffffff;stroke:#263238;stroke-miterlimit:10"
       id="rect171" />
    <path
       d="m 231.1,138.33 h 155.2 a 9.1,9.1 0 0 1 9.1,9.1 v 105.35 a 7.8,7.8 0 0 1 -7.8,7.8 H 229.8 a 7.8,7.8 0 0 1 -7.8,-7.8 V 147.44 a 9.1,9.1 0 0 1 9.1,-9.11 z"
       style="fill:#ffffff;stroke:#263238;stroke-miterlimit:10"
       id="path173" />
    <path
       d="m 231.1,138.33 h 155.2 a 9.1,9.1 0 0 1 9.1,9.1 v 94.94 H 222 v -94.93 a 9.1,9.1 0 0 1 9.1,-9.11 z"
       style="fill:#263238;stroke:#263238;stroke-miterlimit:10"
       id="path175" />
    <rect
       x="229.8"
       y="147"
       width="157.8"
       height="86.699997"
       style="fill:#ffffff;stroke:#263238;stroke-miterlimit:10"
       id="rect177" />
    <line
       x1="239.33"
       y1="199.67"
       x2="255.33"
       y2="199.67"
       style="fill:none;stroke:#263238;stroke-miterlimit:10"
       id="line179" />
    <line
       x1="239.33"
       y1="203.67"
       x2="255.33"
       y2="203.67"
       style="fill:none;stroke:#263238;stroke-miterlimit:10"
       id="line181" />
    <line
       x1="239.33"
       y1="207.67"
       x2="255.33"
       y2="207.67"
       style="fill:none;stroke:#263238;stroke-miterlimit:10"
       id="line183" />
    <line
       x1="239.33"
       y1="211.67"
       x2="255.33"
       y2="211.67"
       style="fill:none;stroke:#263238;stroke-miterlimit:10"
       id="line185" />
    <line
       x1="255.81"
       y1="179.08"
       x2="235.87"
       y2="160.88"
       style="fill:none;stroke:#263238;stroke-miterlimit:10"
       id="line187" />
    <polyline
       points="280.09 212.03 260.15 179.08 295.7 167.81 280.09 212.03 342.52 209.43 365.93 161.74 300.03 167.81 339.05 204.23"
       style="fill:none;stroke:#263238;stroke-miterlimit:10"
       id="polyline189" />
    <line
       x1="342.51999"
       y1="209.42999"
       x2="377.20001"
       y2="224.17"
       style="fill:none;stroke:#263238;stroke-miterlimit:10"
       id="line191" />
    <path
       d="m 260.15,179.08 a 4.34,4.34 0 1 1 -4.34,-4.33 4.34,4.34 0 0 1 4.34,4.33 z"
       style="fill:#ffffff;stroke:#263238;stroke-miterlimit:10"
       id="path193" />
    <path
       d="m 346.85,209.43 a 4.34,4.34 0 1 1 -4.33,-4.34 4.34,4.34 0 0 1 4.33,4.34 z"
       style="fill:#ffffff;stroke:#263238;stroke-miterlimit:10"
       id="path195" />
    <path
       d="m 300,167.81 a 4.34,4.34 0 1 1 -4.33,-4.33 4.33,4.33 0 0 1 4.33,4.33 z"
       style="fill:#ffffff;stroke:#263238;stroke-miterlimit:10"
       id="path197" />
    <path
       d="m 370.26,161.74 a 4.34,4.34 0 1 1 -4.33,-4.33 4.33,4.33 0 0 1 4.33,4.33 z"
       style="fill:#ffffff;stroke:#263238;stroke-miterlimit:10"
       id="path199" />
    <path
       d="m 284.43,212 a 4.34,4.34 0 1 1 -4.34,-4.33 4.34,4.34 0 0 1 4.34,4.33 z"
       style="fill:#ffffff;stroke:#263238;stroke-miterlimit:10"
       id="path201" />
    <polygon
       points="227.24,143.94 226.84,156.9 241.01,156.9 241.41,144.75 "
       style="fill:#dbdac7;stroke:#263238;stroke-miterlimit:10"
       id="polygon203" />
    <polygon
       points="384.57,152.61 384.17,165.56 398.34,165.56 398.75,153.42 "
       style="fill:#dbdac7;stroke:#263238;stroke-miterlimit:10"
       id="polygon205" />
    <polygon
       points="215.09,171.07 214.69,184.03 228.86,184.03 229.26,171.88 "
       style="fill:#dbdac7;stroke:#263238;stroke-miterlimit:10"
       id="polygon207" />
    <polygon
       points="217.12,187.67 216.71,200.63 230.88,200.63 231.29,188.48 "
       style="fill:#dbdac7;stroke:#263238;stroke-miterlimit:10"
       id="polygon209" />
  </g>
  <g
     id="freepik--Books--inject-20"
     transform="translate(0,128.56892)">
    <path
       d="m 222.08,274.28 h -67.75 a 11.25,11.25 0 0 0 0,22.5 h 67.75 c -6.42,-12.65 0,-22.5 0,-22.5 z"
       style="fill:#263238;stroke:#263238;stroke-width:3px;stroke-miterlimit:10"
       id="path212" />
    <path
       d="m 253.17,274.28 h -67.75 a 11.25,11.25 0 1 0 0,22.5 h 67.75 c -6.43,-12.65 0,-22.5 0,-22.5 z"
       style="fill:#ffffff;stroke:#263238;stroke-miterlimit:10"
       id="path214" />
    <path
       d="m 255.14,298.28 h -69.72 a 12.75,12.75 0 1 1 0,-25.5 h 69.72 a 1.5,1.5 0 0 1 0,3 h -69.72 a 9.75,9.75 0 1 0 0,19.5 h 69.72 a 1.5,1.5 0 0 1 0,3 z"
       style="fill:#263238"
       id="path216" />
    <line
       x1="182.14"
       y1="276.06"
       x2="182.14"
       y2="294.06"
       style="fill:none;stroke:#263238;stroke-miterlimit:10"
       id="line218" />
    <line
       x1="182.14"
       y1="282.13"
       x2="196.5"
       y2="282.13"
       style="fill:none;stroke:#263238;stroke-miterlimit:10"
       id="line220" />
    <line
       x1="186.78999"
       y1="285.76999"
       x2="197.11"
       y2="285.76999"
       style="fill:none;stroke:#263238;stroke-miterlimit:10"
       id="line222" />
    <line
       x1="182.55"
       y1="289.60999"
       x2="204.39"
       y2="289.60999"
       style="fill:none;stroke:#263238;stroke-miterlimit:10"
       id="line224" />
    <path
       d="m 177.64,247.47 h 67.75 c 6.22,0 11.25,5.7 11.25,12.72 0,7.02 -5,12.73 -11.25,12.73 h -67.75 c 6.43,-14.31 0,-25.45 0,-25.45 z"
       style="fill:#dbdac7;stroke:#263238;stroke-miterlimit:10"
       id="path226" />
    <path
       d="m 146.56,248.94 h 67.75 a 11.25,11.25 0 0 1 0,22.5 h -67.75 c 6.44,-12.64 0,-22.5 0,-22.5 z"
       style="fill:#ffffff;stroke:#263238;stroke-miterlimit:10"
       id="path228" />
    <path
       d="m 144.58,272.94 h 69.73 a 12.75,12.75 0 0 0 0,-25.5 h -69.73 a 1.5,1.5 0 1 0 0,3 h 69.73 a 9.75,9.75 0 0 1 0,19.5 h -69.73 a 1.5,1.5 0 1 0 0,3 z"
       style="fill:#dbdac7;stroke:#263238;stroke-miterlimit:10"
       id="path230" />
    <line
       x1="217.58"
       y1="250.73"
       x2="217.58"
       y2="268.72"
       style="fill:none;stroke:#263238;stroke-miterlimit:10"
       id="line232" />
    <line
       x1="217.58"
       y1="256.79001"
       x2="203.23"
       y2="256.79001"
       style="fill:none;stroke:#263238;stroke-miterlimit:10"
       id="line234" />
    <line
       x1="212.92999"
       y1="260.42999"
       x2="202.62"
       y2="260.42999"
       style="fill:none;stroke:#263238;stroke-miterlimit:10"
       id="line236" />
    <line
       x1="217.17999"
       y1="264.26999"
       x2="195.34"
       y2="264.26999"
       style="fill:none;stroke:#263238;stroke-miterlimit:10"
       id="line238" />
    <path
       d="m 593.24,238 c -3.85,-1 -8.09,-3.23 -15.78,-3.23 -6.65,0 -10.27,3.33 -11.12,4.22 -0.85,-0.89 -4.47,-4.22 -11.12,-4.22 -7.68,0 -11.93,2.22 -15.77,3.23 a 103.48,103.48 0 0 1 -10.52,1.82 v 8.7 h 74.82 v -8.7 A 103,103 0 0 1 593.24,238 Z"
       style="fill:#ffffff;stroke:#263238;stroke-miterlimit:10"
       id="path240" />
    <path
       d="M 566.34,245.93 A 21.66,21.66 0 0 0 552.79,241.48 80,80 0 0 0 536,244.11"
       style="fill:none;stroke:#263238;stroke-miterlimit:10"
       id="path242" />
    <path
       d="m 568,244.31 c 0,0 3.44,-3 11.73,-2.22 8.29,0.78 20.42,3 20.42,3"
       style="fill:none;stroke:#263238;stroke-miterlimit:10"
       id="path244" />
    <path
       d="m 573.42,240.27 c 0,0 1.62,-0.81 7.68,0"
       style="fill:none;stroke:#263238;stroke-miterlimit:10"
       id="path246" />
    <path
       d="m 566.75,245.12 c 0,0 -0.61,-4.45 -8.09,-6.27 a 27.15,27.15 0 0 0 -15.78,1"
       style="fill:none;stroke:#263238;stroke-miterlimit:10"
       id="path248" />
    <path
       d="m 604.76,234 c -9.1,-1.42 -17.39,-12.14 -27.09,-9.1 -9.7,3.04 -11.33,14.1 -11.33,14.1 a 15.1,15.1 0 0 1 15,-7.86 c 10.71,1 14.76,7.28 24.06,7.28"
       style="fill:none;stroke:#263238;stroke-miterlimit:10"
       id="path250" />
    <path
       d="m 604,249 h -67.75 a 11.25,11.25 0 0 0 0,22.5 H 604 c -6.42,-12.65 0,-22.5 0,-22.5 z"
       style="fill:#ffffff;stroke:#263238;stroke-miterlimit:10"
       id="path252" />
    <path
       d="m 606,273 h -69.75 a 12.75,12.75 0 0 1 0,-25.5 H 606 a 1.5,1.5 0 0 1 0,3 h -69.75 a 9.75,9.75 0 0 0 0,19.5 H 606 a 1.5,1.5 0 0 1 0,3 z"
       style="fill:#263238"
       id="path254" />
    <line
       x1="532.97998"
       y1="250.78"
       x2="532.97998"
       y2="268.78"
       style="fill:none;stroke:#263238;stroke-miterlimit:10"
       id="line256" />
    <line
       x1="532.97998"
       y1="256.85001"
       x2="547.33002"
       y2="256.85001"
       style="fill:none;stroke:#263238;stroke-miterlimit:10"
       id="line258" />
    <line
       x1="537.63"
       y1="260.48999"
       x2="547.94"
       y2="260.48999"
       style="fill:none;stroke:#263238;stroke-miterlimit:10"
       id="line260" />
    <line
       x1="533.38"
       y1="264.32999"
       x2="555.21997"
       y2="264.32999"
       style="fill:none;stroke:#263238;stroke-miterlimit:10"
       id="line262" />
    <path
       d="m 597.33,274.28 h -67.75 a 11.25,11.25 0 0 0 0,22.5 h 67.75 c -6.42,-12.65 0,-22.5 0,-22.5 z"
       style="fill:#ffffff;stroke:#263238;stroke-miterlimit:10"
       id="path264" />
    <path
       d="m 599.31,298.28 h -69.73 a 12.75,12.75 0 0 1 0,-25.5 h 69.73 a 1.5,1.5 0 0 1 0,3 h -69.73 a 9.75,9.75 0 0 0 0,19.5 h 69.73 a 1.5,1.5 0 0 1 0,3 z"
       style="fill:#dbdac7;stroke:#263238;stroke-miterlimit:10"
       id="path266" />
    <line
       x1="526.31"
       y1="276.06"
       x2="526.31"
       y2="294.06"
       style="fill:none;stroke:#263238;stroke-miterlimit:10"
       id="line268" />
    <line
       x1="526.31"
       y1="282.13"
       x2="540.66998"
       y2="282.13"
       style="fill:none;stroke:#263238;stroke-miterlimit:10"
       id="line270" />
    <line
       x1="530.96002"
       y1="285.76999"
       x2="541.27002"
       y2="285.76999"
       style="fill:none;stroke:#263238;stroke-miterlimit:10"
       id="line272" />
    <line
       x1="526.71002"
       y1="289.60999"
       x2="548.54999"
       y2="289.60999"
       style="fill:none;stroke:#263238;stroke-miterlimit:10"
       id="line274" />
  </g>
  <g
     id="freepik--Desk--inject-20"
     transform="translate(0,128.56892)">
    <polygon
       points="135.83,303.65 132,468 159,320 377,472 607,472 615,472 698,472 615,309.99 612.1,303.65 606.37,303.65 596.22,303.65 "
       style="opacity:0.2"
       id="polygon277" />
    <polygon
       points="601.41,471.5 607,471.5 607,300.38 593,300.38 "
       style="fill:#ffffff;stroke:#263238;stroke-miterlimit:10"
       id="polygon279" />
    <polygon
       points="134.59,471.5 129,471.5 129,300.38 143,300.38 "
       style="fill:#ffffff;stroke:#263238;stroke-miterlimit:10"
       id="polygon281" />
    <rect
       x="128.84"
       y="303.76001"
       width="13.98"
       height="5.0100002"
       style="fill:#263238"
       id="rect283" />
    <rect
       x="503.59"
       y="299.07999"
       width="97.699997"
       height="153.72"
       style="fill:#ffffff;stroke:#263238;stroke-miterlimit:10"
       id="rect285" />
    <rect
       x="503.29999"
       y="303.64999"
       width="103.7"
       height="8.3599997"
       style="fill:#263238;stroke:#263238;stroke-miterlimit:10"
       id="rect287" />
    <rect
       x="124"
       y="297"
       width="490"
       height="8"
       style="fill:#ffffff;stroke:#263238;stroke-miterlimit:10"
       id="rect289" />
    <rect
       x="511.39999"
       y="360.79999"
       width="84.019997"
       height="41.360001"
       style="fill:#ffffff;stroke:#263238;stroke-miterlimit:10"
       id="rect291" />
    <rect
       x="544.62"
       y="378.51999"
       width="19.540001"
       height="5.9099998"
       style="fill:#263238;stroke:#263238;stroke-miterlimit:10"
       id="rect293" />
    <rect
       x="511.39999"
       y="406.88"
       width="84.019997"
       height="41.360001"
       style="fill:#ffffff;stroke:#263238;stroke-miterlimit:10"
       id="rect295" />
    <rect
       x="544.62"
       y="424.60999"
       width="19.540001"
       height="5.9099998"
       style="fill:#263238;stroke:#263238;stroke-miterlimit:10"
       id="rect297" />
    <polygon
       points="594.62,319.25 520.23,356.26 538.17,379.06 606.58,379.06 606.58,331.21 "
       style="fill:#263238;stroke:#263238;stroke-miterlimit:10"
       id="polygon299" />
    <rect
       x="511.39999"
       y="314.72"
       width="84.019997"
       height="41.360001"
       style="fill:#ffffff;stroke:#263238;stroke-miterlimit:10"
       id="rect301" />
    <rect
       x="544.62"
       y="332.44"
       width="19.540001"
       height="5.9099998"
       style="fill:#263238;stroke:#263238;stroke-miterlimit:10"
       id="rect303" />
  </g>
  <g
     id="freepik--Character--inject-20"
     transform="translate(0,128.56892)">
    <path
       d="m 440.82,449.25 24.86,16.64 a 2.77,2.77 0 0 1 1.36,2.38 v 0 A 2.76,2.76 0 0 1 464,471 l -41.37,-4.4 a 3.22,3.22 0 0 1 -2.66,-4.39 l 5.22,-15.31 z"
       style="fill:#ffffff;stroke:#263238;stroke-miterlimit:10"
       id="path306" />
    <path
       d="m 313,445 -26.76,21.11 a 2.79,2.79 0 0 0 -1.36,2.39 v 0 a 2.77,2.77 0 0 0 3.06,2.75 l 41.37,-4.4 a 3.24,3.24 0 0 0 2.67,-4.39 L 329.5,445 Z"
       style="fill:#ffffff;stroke:#263238;stroke-miterlimit:10"
       id="path308" />
    <path
       d="m 331.64,251.2 c 0,0 -3,-8.66 -4,-11 -1,-2.34 -8.65,0.67 -8.65,0.67 0,0 -4,-2 -5.66,-1 -1.66,1 -3,4 -3,4 0,0 -4,-1.33 -5,1 a 20.7,20.7 0 0 0 -1.33,4.66 c 0,0 -2.67,1 -2.67,2.33 0,1.33 -1.33,8 1.34,9 2.67,1 2.66,-5.33 2.66,-5.33 0,0 3.33,4.66 5.66,6.33 2.33,1.67 8.32,1.33 8.32,1.33 z"
       style="fill:#ffffff;stroke:#263238;stroke-miterlimit:10"
       id="path310" />
    <path
       d="m 332,249.53 a 8.19,8.19 0 0 0 -5.66,0.34 c -2.66,1.33 -11.32,13 -12.65,15.64 -1.33,2.64 -2,8 -1,9.32 1,1.32 2.66,-1 2.66,-1 0,0 2,-1.66 3.33,-2.66 a 24.61,24.61 0 0 1 8.66,-3.33 c 3.66,-0.66 11,-12.65 11,-12.65 l -0.66,-2.66 z"
       style="fill:#ffffff;stroke:#263238;stroke-miterlimit:10"
       id="path312" />
    <path
       d="m 496.07,242.88 c 0,0 25.63,-14 28.63,-15 3,-1 13.65,-4.33 18.64,-4.33 4.99,0 7.65,0 8.32,1 0.67,1 8,5 9.65,6.32 1.65,1.32 4.33,4.66 2.33,5 -2,0.34 -5.32,-1.34 -6.32,-1.34 h -9 c -1.66,0 -8.32,2.33 -11.65,3.67 -3.33,1.34 -12,0.33 -12,0.33 l -18.64,22 z"
       style="fill:#ffffff;stroke:#263238;stroke-miterlimit:10"
       id="path314" />
    <path
       d="m 340.5,313 c 0,0 -10.5,5 -12,10.5 C 327,329 313,445 313,445 h 16.5 l 36,-99.5 c 0,0 -11.5,-36 -25,-32.5 z"
       style="fill:#263238;stroke:#263238;stroke-miterlimit:10"
       id="path316" />
    <line
       x1="334.95999"
       y1="335.75"
       x2="330"
       y2="327.5"
       style="fill:none;stroke:#8a8a8a;stroke-miterlimit:10"
       id="line318" />
    <path
       d="m 341.29,299.46 c 0,0 -6.29,32.29 -6.29,36.29 0,4 9.32,12.64 14.32,14 5,1.36 109.18,7.65 109.18,7.65 l -33.29,89.54 a 10.87,10.87 0 0 0 9.65,3.33 l 6,-1 c 0,0 19.26,-32.27 21.59,-38.27 2.33,-6 34.29,-62.58 34.29,-67.9 0,-5.32 -4.66,-8.66 -4.66,-8.66 l -70.57,-20.3 -4.33,-2 z"
       style="fill:#263238;stroke:#263238;stroke-miterlimit:10"
       id="path320" />
    <line
       x1="458.45999"
       y1="357.38"
       x2="481"
       y2="358"
       style="fill:none;stroke:#8a8a8a;stroke-miterlimit:10"
       id="line322" />
    <path
       d="m 385.56,184.29 c 0,0 -30.29,-1.33 -31.29,2 -1,3.33 -6.27,30.29 -6.27,30.29 0,0 -19.64,38.94 -25.64,46.27 -6,7.33 -4.32,17.31 5.33,19.64 9.65,2.33 17.31,-4 17.31,-4 0,0 -6.32,19 -4.66,22.3 1.66,3.3 33.29,11.66 50.26,13 16.97,1.34 26.63,1 29.3,-1.33 2.67,-2.33 6,-28 8,-31.29 2,-3.29 7.66,-26.63 7.66,-26.63 0,0 24.63,31.29 31,31.62 6.37,0.33 32.95,-18.64 32.95,-18.64 0,0 -4.33,-10 -8,-14.32 -3.67,-4.32 -9.32,-4 -9.32,-4 l -8.65,4.66 c 0,0 -15.32,-23.63 -17.65,-28.29 -2.33,-4.66 -0.66,-15.65 -2.66,-18 -2,-2.35 -18,-3 -18,-3 l -47.27,-21 z"
       style="fill:#ffffff;stroke:#263238;stroke-miterlimit:10"
       id="path324" />
    <path
       d="m 401.53,215.12 c -8.38,6.3 -23.74,19.23 -27.17,31.45"
       style="fill:none;stroke:#263238;stroke-miterlimit:10"
       id="path326" />
    <path
       d="m 407,211.2 c 0,0 -1.11,0.74 -2.93,2"
       style="fill:none;stroke:#263238;stroke-miterlimit:10"
       id="path328" />
    <path
       d="m 370.88,239.89 a 10,10 0 0 0 -1.28,4"
       style="fill:none;stroke:#263238;stroke-miterlimit:10"
       id="path330" />
    <path
       d="m 377.76,229.57 a 82.28,82.28 0 0 0 -6,8.62"
       style="fill:none;stroke:#263238;stroke-miterlimit:10"
       id="path332" />
    <path
       d="m 472.11,148 c 0,0 0.33,7.65 -1,11.32 -1.33,3.67 -5.33,6.65 -5.33,8.32 0,1.67 6,12.31 4.66,13.31 -1.34,1 -9.65,2.33 -9.65,2.33 0,0 -8.66,13.65 -10,14.32 -1.34,0.67 -16.64,-5 -16.64,-5 l -4,4 -24.62,-12.6 10.65,-9.32 c 0,0 7.66,-10 7,-20.31 -0.66,-10.31 -3,-19.3 9.66,-25.29 12.66,-5.99 27,-1.67 34.95,5.65 7.95,7.32 4.32,13.27 4.32,13.27 z"
       style="fill:#ffffff;stroke:#263238;stroke-miterlimit:10"
       id="path334" />
    <path
       d="m 441.81,167 h 6 l 0.33,-9.32 c 0,0 11,-0.33 12.31,-2 1.31,-1.67 -1.66,-9 1.34,-9.65 3,-0.65 11.65,4.33 11.65,4.33 0,0 8.32,-0.67 7.32,-13 -1,-12.33 -19.64,-20.31 -34.62,-20.31 -14.98,0 -27.29,9.32 -28.62,18.64 -1.33,9.32 0.33,21.64 0.66,28.63 0.33,6.99 -7,12.32 -3,14 4,1.68 20,-4 22.64,-7.32 2.64,-3.32 3.99,-4 3.99,-4 z"
       style="fill:#263238;stroke:#263238;stroke-miterlimit:10"
       id="path336" />
    <path
       d="m 443.15,168.31 c 0,0 -3,-13 -6,-9 -3,4 -3,13.31 -0.66,16 2.34,2.69 4.33,0.67 4.33,0.67"
       style="fill:#ffffff;stroke:#263238;stroke-miterlimit:10"
       id="path338" />
    <line
       x1="441.48001"
       y1="163.64999"
       x2="472.10999"
       y2="168.31"
       style="fill:none;stroke:#263238;stroke-miterlimit:10"
       id="line340" />
    <path
       d="m 469.74,175.92 a 9,9 0 0 0 0.2,-14.39"
       style="fill:none;stroke:#263238;stroke-miterlimit:10"
       id="path342" />
    <path
       d="m 434.82,201.6 c 0,0 -10.31,-12 -17,-16 -6.69,-4 -20,-8.65 -24,-7.32 -4,1.33 -8.32,6 -8.32,6 0,0 15.31,6 28.29,12 a 130.37,130.37 0 0 0 23.3,8.33 z"
       style="fill:#ffffff;stroke:#263238;stroke-miterlimit:10"
       id="path344" />
    <line
       x1="358.51999"
       y1="198.31"
       x2="359.60001"
       y2="191.95"
       style="fill:#ffffff;stroke:#263238;stroke-miterlimit:10"
       id="line346" />
    <line
       x1="344.95001"
       y1="278.48999"
       x2="357.54999"
       y2="204.00999"
       style="fill:#ffffff;stroke:#263238;stroke-miterlimit:10"
       id="line348" />
    <line
       x1="351.94"
       y1="239.88"
       x2="348.28"
       y2="219.24001"
       style="fill:none;stroke:#263238;stroke-miterlimit:10"
       id="line350" />
    <line
       x1="345.42999"
       y1="235.12"
       x2="343.29001"
       y2="231.23"
       style="fill:none;stroke:#263238;stroke-miterlimit:10"
       id="line352" />
    <line
       x1="350.60999"
       y1="244.53999"
       x2="347.54999"
       y2="238.98"
       style="fill:none;stroke:#263238;stroke-miterlimit:10"
       id="line354" />
    <line
       x1="449.57001"
       y1="237.84"
       x2="453.45999"
       y2="233.22"
       style="fill:none;stroke:#263238;stroke-miterlimit:10"
       id="line356" />
    <polyline
       points="440.48 236.55 435.49 254.53 446.38 241.62"
       style="fill:none;stroke:#263238;stroke-miterlimit:10"
       id="polyline358" />
    <line
       x1="456.73999"
       y1="244.92"
       x2="459.79001"
       y2="243.53999"
       style="fill:none;stroke:#263238;stroke-miterlimit:10"
       id="line360" />
    <line
       x1="435.48999"
       y1="254.53"
       x2="453.25"
       y2="246.5"
       style="fill:none;stroke:#263238;stroke-miterlimit:10"
       id="line362" />
    <path
       d="m 481.76,268.51 c -2.33,-2.67 -8.32,-14.65 -8.32,-14.65 l 11.65,11.32"
       style="fill:none;stroke:#263238;stroke-miterlimit:10"
       id="path364" />
    <path
       d="m 478.76,250.2 c 0,0 7.66,5 12,11.32 4.34,6.32 4.32,12.65 5,14.31 a 12.92,12.92 0 0 1 0.66,4 l 12.32,-8.65 c 3.33,-2.33 4.66,-2 3.66,-5.33 -1,-3.33 -8.32,-17.64 -14.31,-23 -5.99,-5.36 -10.32,-1.67 -10.32,-1.67 l -11.32,8.32 c 0,0 -1.35,0.37 2.31,0.7 z"
       style="fill:#ffffff;stroke:#263238;stroke-miterlimit:10"
       id="path366" />
    <rect
       x="335.20001"
       y="256.70999"
       width="100.62"
       height="69.089996"
       style="fill:#dbdac7;stroke:#263238;stroke-miterlimit:10"
       id="rect368" />
    <rect
       x="339.38"
       y="351.29999"
       width="91.339996"
       height="17.620001"
       style="fill:#dbdac7;stroke:#263238;stroke-miterlimit:10"
       id="rect370" />
    <rect
       x="335.20001"
       y="256.70999"
       width="4.6399999"
       height="214.78999"
       style="fill:#ffffff;stroke:#263238;stroke-miterlimit:10"
       id="rect372" />
    <rect
       x="430.72"
       y="256.70999"
       width="4.6399999"
       height="214.78999"
       style="fill:#ffffff;stroke:#263238;stroke-miterlimit:10"
       id="rect374" />
  </g>
  <g
     id="freepik--Floor--inject-20"
     transform="translate(0,128.56892)">
    <line
       x1="33"
       y1="471.5"
       x2="706"
       y2="471.5"
       style="fill:none;stroke:#263238;stroke-miterlimit:10"
       id="line377" />
  </g>
</svg>
