<?xml version="1.0" encoding="UTF-8" standalone="no"?>
<svg
   xmlns:dc="http://purl.org/dc/elements/1.1/"
   xmlns:cc="http://creativecommons.org/ns#"
   xmlns:rdf="http://www.w3.org/1999/02/22-rdf-syntax-ns#"
   xmlns:svg="http://www.w3.org/2000/svg"
   xmlns="http://www.w3.org/2000/svg"
   xmlns:xlink="http://www.w3.org/1999/xlink"
   xmlns:sodipodi="http://sodipodi.sourceforge.net/DTD/sodipodi-0.dtd"
   xmlns:inkscape="http://www.inkscape.org/namespaces/inkscape"
   width="512"
   height="512"
   version="1.1"
   id="svg8"
   sodipodi:docname="icon.svg"
   inkscape:version="1.0.1 (3bc2e813f5, 2020-09-07)"
   inkscape:export-filename="C:\Projects\Private\Webpage\assets\img\my\icon.png"
   inkscape:export-xdpi="90"
   inkscape:export-ydpi="90">
  <metadata
     id="metadata14">
    <rdf:RDF>
      <cc:Work
         rdf:about="">
        <dc:format>image/svg+xml</dc:format>
        <dc:type
           rdf:resource="http://purl.org/dc/dcmitype/StillImage" />
        <dc:title></dc:title>
      </cc:Work>
    </rdf:RDF>
  </metadata>
  <defs
     id="defs12">
    <linearGradient
       inkscape:collect="always"
       id="linearGradient977">
      <stop
         style="stop-color:#a99889;stop-opacity:1"
         offset="0"
         id="stop973" />
      <stop
         style="stop-color:#c5b9af;stop-opacity:1"
         offset="1"
         id="stop975" />
    </linearGradient>
    <linearGradient
       inkscape:collect="always"
       xlink:href="#linearGradient977"
       id="linearGradient979"
       x1="447.97162"
       y1="383.89032"
       x2="447.38013"
       y2="243.4332"
       gradientUnits="userSpaceOnUse" />
  </defs>
  <sodipodi:namedview
     pagecolor="#ffffff"
     bordercolor="#666666"
     borderopacity="1"
     objecttolerance="10"
     gridtolerance="10"
     guidetolerance="10"
     inkscape:pageopacity="0"
     inkscape:pageshadow="2"
     inkscape:window-width="1920"
     inkscape:window-height="1001"
     id="namedview10"
     showgrid="false"
     inkscape:zoom="0.82345487"
     inkscape:cx="447.8488"
     inkscape:cy="232.11751"
     inkscape:window-x="1911"
     inkscape:window-y="-9"
     inkscape:window-maximized="1"
     inkscape:current-layer="g851"
     fit-margin-top="50"
     fit-margin-left="50"
     fit-margin-right="50"
     fit-margin-bottom="50"
     lock-margins="true"
     inkscape:document-rotation="0" />
  <g
     fill="#ffffff"
     fill-rule="nonzero"
     id="g6"
     transform="translate(-237.70279,-72.503619)">
    <g
       id="g851"
       transform="matrix(1.1359223,0,0,1.1359223,-19.006552,-27.456313)"
       style="stroke-width:0.880342">
      <rect
         style="fill:#32414e;fill-opacity:1;stroke:none;stroke-width:0.880341;stroke-linecap:round;stroke-linejoin:round;stroke-miterlimit:4;stroke-dasharray:none;stroke-opacity:1;paint-order:stroke markers fill;stop-color:#000000"
         id="rect889"
         width="458.10931"
         height="462.64511"
         x="224.48009"
         y="87.998924" />
      <g
         aria-label="-"
         transform="scale(2.5424338,0.3933239)"
         id="text845"
         style="font-size:43.1071px;line-height:1.25;font-family:sans-serif;fill:#e2dcd7;fill-opacity:1;stroke:none;stroke-width:0.880343;stroke-opacity:1" />
      <g
         aria-label="o"
         id="text841-3"
         style="font-size:192px;line-height:0;font-family:sans-serif;fill:#e2dcd7;fill-opacity:1;stroke:none;stroke-width:0.880342;stroke-miterlimit:4;stroke-dasharray:none;stroke-opacity:1">
        <path
           id="path888"
           style="font-style:normal;font-variant:normal;font-weight:300;font-stretch:normal;line-height:1.25;font-family:'Metronic Pro';-inkscape-font-specification:'Metronic Pro Light';fill:url(#linearGradient979);fill-opacity:1;stroke:none;stroke-width:0.880342;stroke-miterlimit:4;stroke-dasharray:none;stroke-opacity:1"
           d="m 478.92507,325.84042 v -24.192 q -0.192,-14.976 -7.488,-20.928 -7.296,-6.144 -23.808,-6.144 -16.512,0 -24,6.144 -7.296,6.144 -7.296,20.928 v 24.192 -0.192 q 0.192,14.976 7.68,21.12 7.68,6.144 23.616,6.144 16.32,0 23.616,-6.144 7.488,-6.144 7.68,-21.12 z m 13.44,-24 v 24 q -0.384,18.624 -10.368,28.608 -9.792,10.176 -34.368,10.176 -23.808,0 -34.368,-9.792 -10.368,-9.984 -10.368,-29.184 v -23.808 q 0,-18.048 9.6,-28.608 9.792,-10.368 35.136,-10.368 25.152,0 34.944,10.368 9.792,10.368 9.792,28.608 z m -109.63497,7.51307 h 129.79791 v 6.10975 H 382.7301 Z m 129.87736,30.41295 q 0,-9.792 5.376,-18.432 5.568,-8.832 14.208,-13.248 -7.872,-4.8 -11.712,-11.712 -3.84,-7.104 -3.84,-14.016 0,-38.976 50.496,-38.976 50.688,0 50.688,38.976 0,7.104 -4.032,14.208 -3.84,7.104 -11.904,11.52 8.832,4.416 14.208,13.056 5.376,8.64 5.376,18.624 0,21.504 -12.288,32.64 -12.48,10.944 -42.048,10.944 -29.952,0 -42.24,-11.136 -12.288,-11.136 -12.288,-32.448 z m 54.528,-17.472 q -18.24,0 -18.24,16.896 0,16.128 18.24,16.128 18.048,0 18.048,-16.128 0,-16.896 -18.048,-16.896 z m 0,-50.88 q -14.208,0 -14.208,13.056 0,13.824 14.208,13.824 14.4,0 14.4,-13.824 0,-13.056 -14.4,-13.056 z m -204.86388,41.856 -33.984,39.744 h 51.648 v 28.608 h -98.688 v -22.848 l 54.144,-62.784 q 6.336,-7.296 5.952,-13.056 0,-6.144 -4.224,-8.64 -4.032,-2.688 -12.48,-2.688 -19.392,0 -39.168,6.528 v -27.84 q 9.6,-3.84 22.848,-5.184 13.44,-1.728 19.968,-1.728 19.392,0 33.408,6.912 15.936,7.68 15.936,28.416 0,10.944 -3.456,17.856 -3.264,6.336 -11.904,16.704 z" />
      </g>
    </g>
  </g>
</svg>
