<?xml version="1.0" encoding="UTF-8" standalone="no"?>
<svg
   xmlns:dc="http://purl.org/dc/elements/1.1/"
   xmlns:cc="http://creativecommons.org/ns#"
   xmlns:rdf="http://www.w3.org/1999/02/22-rdf-syntax-ns#"
   xmlns:svg="http://www.w3.org/2000/svg"
   xmlns="http://www.w3.org/2000/svg"
   xmlns:xlink="http://www.w3.org/1999/xlink"
   xmlns:sodipodi="http://sodipodi.sourceforge.net/DTD/sodipodi-0.dtd"
   xmlns:inkscape="http://www.inkscape.org/namespaces/inkscape"
   width="512"
   height="512"
   version="1.1"
   id="svg8"
   sodipodi:docname="icon.svg"
   inkscape:version="1.0.1 (3bc2e813f5, 2020-09-07)"
   inkscape:export-filename="C:\Projects\Private\Webpage\assets\img\icon.png"
   inkscape:export-xdpi="90"
   inkscape:export-ydpi="90">
  <metadata
     id="metadata14">
    <rdf:RDF>
      <cc:Work
         rdf:about="">
        <dc:format>image/svg+xml</dc:format>
        <dc:type
           rdf:resource="http://purl.org/dc/dcmitype/StillImage" />
        <dc:title />
      </cc:Work>
    </rdf:RDF>
  </metadata>
  <defs
     id="defs12">
    <linearGradient
       inkscape:collect="always"
       id="linearGradient914">
      <stop
         style="stop-color:#947e6b;stop-opacity:1"
         offset="0"
         id="stop910" />
      <stop
         style="stop-color:#9a8b7e;stop-opacity:1;"
         offset="0.53043592"
         id="stop916" />
      <stop
         style="stop-color:#d4cbc3;stop-opacity:1"
         offset="1"
         id="stop912" />
    </linearGradient>
    <linearGradient
       inkscape:collect="always"
       xlink:href="#linearGradient914"
       id="linearGradient896"
       x1="356.19876"
       y1="400.4472"
       x2="735.48065"
       y2="83.759315"
       gradientUnits="userSpaceOnUse" />
  </defs>
  <sodipodi:namedview
     pagecolor="#ffffff"
     bordercolor="#666666"
     borderopacity="1"
     objecttolerance="10"
     gridtolerance="10"
     guidetolerance="10"
     inkscape:pageopacity="0"
     inkscape:pageshadow="2"
     inkscape:window-width="1920"
     inkscape:window-height="1001"
     id="namedview10"
     showgrid="false"
     inkscape:zoom="0.82345487"
     inkscape:cx="583.48622"
     inkscape:cy="232.11751"
     inkscape:window-x="-9"
     inkscape:window-y="-9"
     inkscape:window-maximized="1"
     inkscape:current-layer="g851"
     fit-margin-top="50"
     fit-margin-left="50"
     fit-margin-right="50"
     fit-margin-bottom="50"
     lock-margins="true"
     inkscape:document-rotation="0" />
  <g
     fill="#ffffff"
     fill-rule="nonzero"
     id="g6"
     transform="translate(-237.70279,-72.503619)">
    <g
       id="g851"
       transform="matrix(1.1359223,0,0,1.1359223,-19.006552,-27.456313)"
       style="stroke-width:0.880342">
      <rect
         style="fill:#32414e;fill-opacity:1;stroke:none;stroke-width:0.880341;stroke-linecap:round;stroke-linejoin:round;stroke-miterlimit:4;stroke-dasharray:none;stroke-opacity:1;paint-order:stroke markers fill;stop-color:#000000"
         id="rect889"
         width="458.10931"
         height="462.64511"
         x="224.48009"
         y="87.998924" />
      <g
         aria-label="-"
         transform="scale(2.5424338,0.3933239)"
         id="text845"
         style="font-size:43.1071px;line-height:1.25;font-family:sans-serif;fill:#e2dcd7;fill-opacity:1;stroke:none;stroke-width:0.880343;stroke-opacity:1" />
      <g
         aria-label="o"
         id="text841-3"
         style="font-size:192px;line-height:0;font-family:sans-serif;fill:#e2dcd7;fill-opacity:1;stroke:none;stroke-width:0.880342;stroke-miterlimit:4;stroke-dasharray:none;stroke-opacity:1"
         transform="translate(18.174417,-311.10326)" />
      <g
         id="g846"
         style="stroke-width:1.2054"
         transform="matrix(0.73033068,0,0,0.73033068,100.48181,165.71327)">
        <path
           id="path1458"
           style="font-style:normal;font-variant:normal;font-weight:900;font-stretch:normal;font-size:192px;line-height:1.25;font-family:'Metronic Pro';-inkscape-font-specification:'Metronic Pro Heavy';fill:url(#linearGradient896);fill-opacity:1;stroke:none;stroke-width:1.2054;stroke-miterlimit:4;stroke-dasharray:none;stroke-opacity:1"
           d="m 631.10245,320.94152 -132.38251,10e-6 84.23817,-238.121826 h 48.14434 c 38.40314,0.446548 60.28156,8.372778 77.92021,23.778686 17.63865,15.18264 26.45798,39.74281 26.45798,73.68046 v 43.20353 c 0,34.38421 -9.0426,59.27927 -27.1278,74.68518 -18.0852,15.18262 -39.74035,22.77396 -77.25039,22.77396 z m -2.13227,-186.88042 -48.36256,135.63903 50.49483,-3e-5 c 16.29901,0 21.76678,-3.57237 28.68828,-10.71714 6.92149,-7.14477 10.38224,-18.97831 10.38224,-35.50058 v -43.20353 c 0,-16.52228 -3.68402,-28.35581 -11.05207,-35.50057 -7.14477,-7.14477 -12.38926,-10.71718 -28.01845,-10.71718 z M 434.10756,320.94153 349.37505,82.819722 h 69.3266 L 461.90518,239.89305 506.44836,82.819722 h 69.3266 L 491.04245,320.94153 Z M 290.03072,172.57591 v 58.60945 c 0,8.03786 1.11637,14.84771 3.34911,20.42956 5.35858,13.17319 22.32741,20.20632 50.90649,21.09941 22.55068,0 44.0047,1.6907 62.96329,0.64316 l 17.66185,48.36777 c 0,0 -19.18325,-0.0888 -19.79726,-0.083 -12.70168,0.12158 -41.76272,0.0342 -69.11658,0.0342 -9.43682,0 -24.71138,-0.72154 -32.90066,-1.33767 -26.49356,-1.9933 -45.78112,-8.2234 -56.26977,-23.84573 -9.60079,-11.16368 -15.74083,-22.77395 -18.42011,-34.83073 -2.00947,-10.27061 -3.0142,-20.98777 -3.0142,-32.15147 v -55.26033 c 0,-7.14477 0.11163,-12.16844 0.33491,-15.071 1.56292,-14.95936 4.57712,-26.68127 9.0426,-35.16568 7.59132,-13.843 17.97356,-24.225241 31.14673,-31.146738 16.74556,-8.707688 37.07152,-10.269386 49.31618,-10.177024 8.34016,-0.02407 22.40294,0.01047 26.13371,-0.06925 6.21347,15.855146 16.98261,47.669882 16.98261,47.669882 0,0 -3.70705,0.17939 -14.0633,0.75629 -10.35625,0.57691 -33.71439,3.46075 -42.86862,10.38227 -3.34911,2.67928 -6.0284,6.25167 -8.03787,10.71715 -2.23274,5.58185 -3.34911,12.39171 -3.34911,20.42958 z" />
      </g>
    </g>
  </g>
</svg>
