<?xml version="1.0" encoding="UTF-8" standalone="no"?>
<!-- Generator: Adobe Illustrator 19.0.0, SVG Export Plug-In . SVG Version: 6.00 Build 0)  -->

<svg
   version="1.1"
   id="layer"
   x="0px"
   y="0px"
   viewBox="-153 -46 600 76.400002"
   xml:space="preserve"
   sodipodi:docname="logo_sopra_grey.svg"
   inkscape:version="1.3.2 (091e20e, 2023-11-25, custom)"
   width="600"
   height="76.400002"
   xmlns:inkscape="http://www.inkscape.org/namespaces/inkscape"
   xmlns:sodipodi="http://sodipodi.sourceforge.net/DTD/sodipodi-0.dtd"
   xmlns="http://www.w3.org/2000/svg"
   xmlns:svg="http://www.w3.org/2000/svg"><defs
   id="defs15"><filter
     style="color-interpolation-filters:sRGB"
     inkscape:label="Greyscale"
     id="filter15"
     x="0"
     y="0"
     width="1"
     height="1"><feColorMatrix
       values="0.21 0.72 0.072 0 0 0.21 0.72 0.072 0 0 0.21 0.72 0.072 0 0 0 0 0 1 0 "
       id="feColorMatrix15" /></filter><filter
     style="color-interpolation-filters:sRGB;"
     inkscape:label="Greyscale"
     id="filter137"
     x="0"
     y="0"
     width="1"
     height="1"><feColorMatrix
       values="0.21 0.72 0.072 0.29 0 0.21 0.72 0.072 0.29 0 0.21 0.72 0.072 0.29 0 0 0 0 1 0 "
       id="feColorMatrix137" /></filter><filter
     style="color-interpolation-filters:sRGB;"
     inkscape:label="Greyscale"
     id="filter138"
     x="0"
     y="0"
     width="1"
     height="1"><feColorMatrix
       values="0.21 0.72 0.072 0.29 0 0.21 0.72 0.072 0.29 0 0.21 0.72 0.072 0.29 0 0 0 0 1 0 "
       id="feColorMatrix138" /></filter><filter
     style="color-interpolation-filters:sRGB;"
     inkscape:label="Greyscale"
     id="filter139"
     x="0"
     y="0"
     width="1"
     height="1"><feColorMatrix
       values="0.21 0.72 0.072 0.29 0 0.21 0.72 0.072 0.29 0 0.21 0.72 0.072 0.29 0 0 0 0 1 0 "
       id="feColorMatrix139" /></filter><filter
     style="color-interpolation-filters:sRGB;"
     inkscape:label="Greyscale"
     id="filter140"
     x="0"
     y="0"
     width="1"
     height="1"><feColorMatrix
       values="0.21 0.72 0.072 0.29 0 0.21 0.72 0.072 0.29 0 0.21 0.72 0.072 0.29 0 0 0 0 1 0 "
       id="feColorMatrix140" /></filter><filter
     style="color-interpolation-filters:sRGB;"
     inkscape:label="Greyscale"
     id="filter141"
     x="0"
     y="0"
     width="1"
     height="1"><feColorMatrix
       values="0.21 0.72 0.072 0.29 0 0.21 0.72 0.072 0.29 0 0.21 0.72 0.072 0.29 0 0 0 0 1 0 "
       id="feColorMatrix141" /></filter><filter
     style="color-interpolation-filters:sRGB;"
     inkscape:label="Greyscale"
     id="filter142"
     x="0"
     y="0"
     width="1"
     height="1"><feColorMatrix
       values="0.21 0.72 0.072 0.29 0 0.21 0.72 0.072 0.29 0 0.21 0.72 0.072 0.29 0 0 0 0 1 0 "
       id="feColorMatrix142" /></filter><filter
     style="color-interpolation-filters:sRGB;"
     inkscape:label="Greyscale"
     id="filter143"
     x="0"
     y="0"
     width="1"
     height="1"><feColorMatrix
       values="0.21 0.72 0.072 0.29 0 0.21 0.72 0.072 0.29 0 0.21 0.72 0.072 0.29 0 0 0 0 1 0 "
       id="feColorMatrix143" /></filter><filter
     style="color-interpolation-filters:sRGB;"
     inkscape:label="Greyscale"
     id="filter144"
     x="0"
     y="0"
     width="1"
     height="1"><feColorMatrix
       values="0.21 0.72 0.072 0.29 0 0.21 0.72 0.072 0.29 0 0.21 0.72 0.072 0.29 0 0 0 0 1 0 "
       id="feColorMatrix144" /></filter><filter
     style="color-interpolation-filters:sRGB;"
     inkscape:label="Greyscale"
     id="filter145"
     x="0"
     y="0"
     width="1"
     height="1"><feColorMatrix
       values="0.21 0.72 0.072 0.29 0 0.21 0.72 0.072 0.29 0 0.21 0.72 0.072 0.29 0 0 0 0 1 0 "
       id="feColorMatrix145" /></filter><filter
     style="color-interpolation-filters:sRGB;"
     inkscape:label="Greyscale"
     id="filter146"
     x="0"
     y="0"
     width="1"
     height="1"><feColorMatrix
       values="0.21 0.72 0.072 0.29 0 0.21 0.72 0.072 0.29 0 0.21 0.72 0.072 0.29 0 0 0 0 1 0 "
       id="feColorMatrix146" /></filter><filter
     style="color-interpolation-filters:sRGB;"
     inkscape:label="Greyscale"
     id="filter147"
     x="0"
     y="0"
     width="1"
     height="1"><feColorMatrix
       values="0.21 0.72 0.072 0.29 0 0.21 0.72 0.072 0.29 0 0.21 0.72 0.072 0.29 0 0 0 0 1 0 "
       id="feColorMatrix147" /></filter><filter
     style="color-interpolation-filters:sRGB;"
     inkscape:label="Greyscale"
     id="filter148"
     x="0"
     y="0"
     width="1"
     height="1"><feColorMatrix
       values="0.21 0.72 0.072 0.29 0 0.21 0.72 0.072 0.29 0 0.21 0.72 0.072 0.29 0 0 0 0 1 0 "
       id="feColorMatrix148" /></filter><filter
     style="color-interpolation-filters:sRGB;"
     inkscape:label="Greyscale"
     id="filter149"
     x="0"
     y="0"
     width="1"
     height="1"><feColorMatrix
       values="0.21 0.72 0.072 0.29 0 0.21 0.72 0.072 0.29 0 0.21 0.72 0.072 0.29 0 0 0 0 1 0 "
       id="feColorMatrix149" /></filter><filter
     style="color-interpolation-filters:sRGB;"
     inkscape:label="Greyscale"
     id="filter150"
     x="0"
     y="0"
     width="1"
     height="1"><feColorMatrix
       values="0.21 0.72 0.072 0.29 0 0.21 0.72 0.072 0.29 0 0.21 0.72 0.072 0.29 0 0 0 0 1 0 "
       id="feColorMatrix150" /></filter><filter
     style="color-interpolation-filters:sRGB;"
     inkscape:label="Greyscale"
     id="filter151"
     x="0"
     y="0"
     width="1"
     height="1"><feColorMatrix
       values="0.21 0.72 0.072 0.29 0 0.21 0.72 0.072 0.29 0 0.21 0.72 0.072 0.29 0 0 0 0 1 0 "
       id="feColorMatrix151" /></filter><filter
     style="color-interpolation-filters:sRGB;"
     inkscape:label="Greyscale"
     id="filter152"
     x="0"
     y="0"
     width="1"
     height="1"><feColorMatrix
       values="0.21 0.72 0.072 0.29 0 0.21 0.72 0.072 0.29 0 0.21 0.72 0.072 0.29 0 0 0 0 1 0 "
       id="feColorMatrix152" /></filter></defs><sodipodi:namedview
   id="namedview15"
   pagecolor="#ffffff"
   bordercolor="#000000"
   borderopacity="0.25"
   inkscape:showpageshadow="2"
   inkscape:pageopacity="0.0"
   inkscape:pagecheckerboard="0"
   inkscape:deskcolor="#d1d1d1"
   inkscape:zoom="1.1917178"
   inkscape:cx="304.60231"
   inkscape:cy="42.375804"
   inkscape:window-width="1920"
   inkscape:window-height="991"
   inkscape:window-x="-9"
   inkscape:window-y="-9"
   inkscape:window-maximized="1"
   inkscape:current-layer="g15" />
<style
   type="text/css"
   id="style1">
	.st0{fill:#F08300;}
	.st1{fill:#D80C1E;}
</style>
<g
   id="g15"
   style="filter:url(#filter15)"
   transform="translate(-21.3,-283.8)">
	<path
   class="st0"
   d="m 194.5,300 c -0.5,0.3 -1.1,0.7 -1.6,1 l -0.2,0.1 h 0.2 c 10.7,2.9 21.3,2.8 23.3,-3.9 2.6,-8.6 -14.4,-17.9 -22.4,-22.3 -1.7,-0.9 -2.5,-0.4 -1.4,0.9 5.1,5.9 12.3,17.4 2.1,24.2"
   id="path1"
   style="filter:url(#filter137)" />
	<path
   d="m 286.9,262.1 h -9 v -7.6 h 9 v -11.2 h 8.7 v 11.2 H 310 v 7.6 h -14.4 v 22.8 c 0,5.7 1.6,8.7 8.9,8.7 2.8,0 5.9,-0.8 5.9,-0.8 v 7.9 c -3,0.4 -5.3,0.7 -8.7,0.7 -13.8,0 -14.9,-9.9 -14.9,-15.4 v -23.9 z"
   id="path2"
   style="filter:url(#filter138)" />
	<rect
   x="403.10001"
   y="254.5"
   width="9"
   height="46.900002"
   id="rect2"
   style="filter:url(#filter139)" />
	<path
   d="m 427.9,277.6 c 0,12.8 10.5,15.9 15.5,15.9 9.5,0 16.2,-5.4 16.2,-16.1 0,-10.8 -7.6,-15.7 -16.3,-15.7 -4.9,0.1 -15.4,3 -15.4,15.9 m -9.1,-0.1 c 0,-17.6 14.2,-23.6 24.1,-23.6 11.2,0 16.7,6.4 16.7,6.4 l 0.5,-5.8 h 8.2 v 47 h -8.2 l -0.5,-6.2 c 0,0 -5.6,6.2 -16.8,6.2 -11.2,0 -24,-6.5 -24,-24"
   id="path3"
   style="filter:url(#filter140)" />
	<path
   d="m 413.4,243.7 c 0,-3.2 -2.6,-5.9 -5.9,-5.9 -3.2,0 -5.9,2.6 -5.9,5.9 0,3.2 2.6,5.9 5.9,5.9 3.3,0 5.9,-2.6 5.9,-5.9"
   id="path4"
   style="filter:url(#filter141)" />
	<path
   d="m 396.5,262.6 v -7.9 c -8.8,-0.8 -15.1,1.3 -19.9,6.4 l -0.5,-6.5 h -8.5 v 46.9 h 9 v -24.3 c 0,-6.8 5.5,-15.4 19.9,-14.6"
   id="path5"
   style="filter:url(#filter142)" />
	<path
   d="m 312.2,277.7 c 0,-14.7 10.8,-24.1 25.3,-24.1 14.4,0 24.3,10.5 24.3,23.3 0,0 0,2 -0.2,3.8 l -40.1,0.2 c 0.4,7.2 8.7,12.7 17.4,12.7 9.3,0 14.8,-5.7 14.8,-5.7 l 6.4,5.6 c -6.5,6.2 -13.6,8.1 -21.2,8.1 -15.8,0 -26.7,-9.2 -26.7,-23.5 z m 39.7,-4 c 0,-6.4 -6.4,-11.7 -14.3,-11.7 -8.4,0 -15.4,5.2 -16,11.7 z"
   id="path6"
   style="filter:url(#filter143)" />
	<path
   d="m 258.6,273.5 c -9,-1.6 -17.9,-2.7 -17.9,-6.9 0,-2.7 2.7,-5.1 10.6,-5.1 5.9,0 12.6,1.4 14.5,5.5 l 8.3,-3.5 c -3.2,-6.4 -12.6,-9.5 -23.4,-9.5 -9.5,0 -19.6,3.6 -19.6,13.2 0,8.3 7.5,10.9 20,13.2 8.3,1.6 16,2.4 16,6.8 0,2.8 -3.8,6.4 -13.2,6.4 -6.7,0 -13.5,-1.4 -15.5,-6.2 l -8.1,3.4 c 3.3,7.4 12.1,11.2 22.2,11.2 20.3,0 24.2,-9.7 24.2,-15.1 0.1,-9.2 -9,-11.8 -18.1,-13.4"
   id="path7"
   style="filter:url(#filter144)" />
	<path
   d="m 0.4,261.8 c -8.7,0 -16.3,4.9 -16.3,15.7 0,10.8 6.7,16.1 16.2,16.1 5,0 15.5,-2 15.5,-15.9 0,-14 -10.5,-15.9 -15.4,-15.9 m 0.5,39.7 c -11.2,0 -16.8,-7.1 -16.8,-7.1 v 19.8 h -8.7 v -59.6 h 8.2 l 0.5,5.8 c 0,0 5.4,-6.4 16.7,-6.4 9.9,0 24.1,5 24.1,23.6 0,18.5 -12.8,23.9 -24,23.9"
   id="path8"
   style="filter:url(#filter145)" />
	<path
   d="m 67.8,277.6 c 0,12.8 10.5,15.9 15.5,15.9 9.5,0 16.2,-5.4 16.2,-16.1 0,-10.8 -7.6,-15.7 -16.3,-15.7 -4.9,0.1 -15.4,3 -15.4,15.9 m -9.1,-0.1 c 0,-17.6 14.2,-23.6 24.2,-23.6 11.2,0 16.7,6.4 16.7,6.4 l 0.5,-5.8 h 8.2 v 47 H 100 l -0.5,-6.2 c 0,0 -5.6,6.2 -16.8,6.2 -11.2,0 -24,-6.5 -24,-24"
   id="path9"
   style="filter:url(#filter146)" />
	<path
   d="m 59.3,262.6 v -7.9 c -8.8,-0.8 -15.1,1.3 -19.9,6.4 l -0.5,-6.5 h -8.5 v 46.9 h 9 v -24.3 c 0,-6.8 5.5,-15.4 19.9,-14.6"
   id="path10"
   style="filter:url(#filter147)" />
	<path
   d="m -103.4,273.5 c -9,-1.6 -17.9,-2.7 -17.9,-6.9 0,-2.7 2.7,-5.1 10.6,-5.1 5.9,0 12.6,1.4 14.5,5.5 l 8.3,-3.5 c -3.2,-6.4 -12.6,-9.5 -23.4,-9.5 -9.5,0 -19.6,3.6 -19.6,13.2 0,8.3 7.5,10.9 20,13.2 8.3,1.6 16,2.4 16,6.8 0,2.8 -3.8,6.4 -13.2,6.4 -6.7,0 -13.5,-1.4 -15.5,-6.2 l -8.1,3.4 c 3.3,7.4 12.1,11.2 22.2,11.2 20.3,0 24.2,-9.7 24.2,-15.1 0,-9.2 -9.1,-11.8 -18.1,-13.4"
   id="path11"
   style="filter:url(#filter148)" />
	<path
   d="m -55.5,253.9 c -12,0 -26.2,6 -26.2,23.6 0,17.5 12.8,24.2 26.2,24.2 13.4,0 26.2,-6.8 26.2,-24.2 0,-17.6 -14.2,-23.6 -26.2,-23.6 m 0,39.7 c -7.4,0 -17.1,-3.2 -17.1,-16 0,-13 10.8,-15.6 17.1,-15.6 6.3,0 17.1,2.6 17.1,15.6 0,12.8 -9.7,16 -17.1,16"
   id="path12"
   style="filter:url(#filter149)" />
	<path
   class="st1"
   d="m 192.7,301.1 c 0,0 -13.5,8.5 -37.3,8.5 -9.2,0 -17,-1.4 -20.3,-4.6 -3.5,-3.4 -5.3,-9.1 -5.3,-14.4 0,-4.5 1.9,-8.3 5.8,-8.3 10.1,-0.1 41.3,15.8 57.1,18.8"
   id="path13"
   style="filter:url(#filter150)" />
	<path
   class="st0"
   d="m 147.8,251.9 c 0.5,-0.3 1.1,-0.7 1.6,-1 l 0.2,-0.1 h -0.2 c -10.7,-2.9 -21.3,-2.8 -23.3,3.9 -2.6,8.6 14.4,17.9 22.4,22.3 1.7,0.9 2.5,0.4 1.4,-0.9 -5.1,-5.9 -12.3,-17.4 -2.1,-24.2"
   id="path14"
   style="filter:url(#filter151)" />
	<path
   class="st1"
   d="m 149.6,250.8 c 0,0 13.5,-8.5 37.3,-8.5 9.2,0 17,1.4 20.3,4.6 3.5,3.4 5.3,9.1 5.3,14.4 0,4.5 -1.9,8.3 -5.8,8.3 -10.1,0.1 -41.3,-15.8 -57.1,-18.8"
   id="path15"
   style="filter:url(#filter152)" />
</g>
</svg>
