<?xml version="1.0" encoding="UTF-8" standalone="no"?>
<svg
   xmlns:dc="http://purl.org/dc/elements/1.1/"
   xmlns:cc="http://creativecommons.org/ns#"
   xmlns:rdf="http://www.w3.org/1999/02/22-rdf-syntax-ns#"
   xmlns:svg="http://www.w3.org/2000/svg"
   xmlns="http://www.w3.org/2000/svg"
   xmlns:sodipodi="http://sodipodi.sourceforge.net/DTD/sodipodi-0.dtd"
   xmlns:inkscape="http://www.inkscape.org/namespaces/inkscape"
   width="1220.3634"
   height="302.83029"
   version="1.1"
   id="svg8"
   sodipodi:docname="logo_black.svg"
   inkscape:version="1.0.1 (3bc2e813f5, 2020-09-07)">
  <metadata
     id="metadata14">
    <rdf:RDF>
      <cc:Work
         rdf:about="">
        <dc:format>image/svg+xml</dc:format>
        <dc:type
           rdf:resource="http://purl.org/dc/dcmitype/StillImage" />
        <dc:title></dc:title>
      </cc:Work>
    </rdf:RDF>
  </metadata>
  <defs
     id="defs12" />
  <sodipodi:namedview
     pagecolor="#ffffff"
     bordercolor="#666666"
     borderopacity="1"
     objecttolerance="10"
     gridtolerance="10"
     guidetolerance="10"
     inkscape:pageopacity="0"
     inkscape:pageshadow="2"
     inkscape:window-width="1920"
     inkscape:window-height="1001"
     id="namedview10"
     showgrid="false"
     inkscape:zoom="0.41172744"
     inkscape:cx="1035.3432"
     inkscape:cy="451.69778"
     inkscape:window-x="1911"
     inkscape:window-y="-9"
     inkscape:window-maximized="1"
     inkscape:current-layer="g851"
     fit-margin-top="50"
     fit-margin-left="50"
     fit-margin-right="50"
     fit-margin-bottom="50"
     lock-margins="true"
     inkscape:document-rotation="0" />
  <g
     fill="#ffffff"
     fill-rule="nonzero"
     id="g6"
     transform="translate(21.245376,-50.584856)">
    <g
       id="g851"
       transform="matrix(1.1359223,0,0,1.1359223,-19.006552,-27.456313)"
       style="stroke-width:0.880342">
      <g
         aria-label="two o eight"
         id="text841"
         style="font-size:192px;line-height:1.25;font-family:sans-serif;fill:#000000;fill-opacity:1;stroke:none;stroke-width:0.880342;stroke-miterlimit:4;stroke-dasharray:none;stroke-opacity:1" />
      <g
         aria-label="-"
         transform="scale(2.9693255,0.33677682)"
         id="text845"
         style="font-size:50.345px;line-height:1.25;font-family:sans-serif;fill:#000007;fill-opacity:1;stroke-width:0.880343">
        <path
           id="path882"
           style="font-size:226.552px;fill:#000007;fill-opacity:1;stroke-width:0.880343"
           d="m 129.15925,590.73294 h 59.62477 v 18.14186 h -59.62477 z m 217.16489,72.92322 v 79.24536 q -4.59094,7.41143 -8.47061,7.41143 -5.17291,0 -8.40596,-24.51475 -3.23306,-24.51475 -3.42704,-73.54425 v -124.8542 h -4.26764 v -74.11437 h 4.6556 l 2.0045,-67.84315 h 9.82851 v 67.84315 h 8.01798 v 74.11437 H 338.2415 V 633.4403 q 0,21.6642 1.03457,27.93541 1.09924,5.70111 3.1684,5.70111 1.29322,0 3.87967,-3.42066 z M 305.78161,448.15439 q 6.07815,0 8.92324,23.37453 2.78043,22.80442 2.78043,85.51657 V 745.18196 H 305.26432 V 570.72815 q 0,-22.80442 -0.77593,-30.78597 -0.77593,-8.55166 -2.84509,-8.55166 -1.48721,0 -3.68569,4.56089 V 745.18196 H 285.73666 V 339.83339 h 12.22095 v 118.58299 q 2.97442,-10.26199 7.824,-10.26199 z m -56.12585,416.75077 v -79.81547 q 11.3157,-2.85055 13.9668,-9.12177 2.3278,-4.56088 2.78043,-18.81364 0.32331,-9.69188 0.32331,-23.94464 -2.65111,17.10331 -7.95332,17.10331 -3.75035,0 -7.17739,-21.6642 -4.20298,-26.79519 -4.20298,-100.90955 v -47.88929 q 0,-63.28226 3.03908,-97.48889 3.03907,-34.20663 8.92324,-34.20663 4.72026,0 8.92324,23.94464 l 0.90525,-18.81365 h 9.8285 v 246.85785 q 0,19.95387 -0.0647,25.65497 0,7.98155 -0.19399,25.08486 -0.19398,17.67343 -0.58195,26.7952 -1.22856,31.92618 -3.29772,46.17895 -2.84509,22.23431 -7.30671,30.78596 -3.36238,6.84133 -6.85408,7.41144 l -3.36238,1.71033 q -0.84059,0.57011 -4.00899,0.57011 -1.87517,0.57011 -3.68568,0.57011 z m 17.1352,-203.52945 v -125.4243 q -1.68119,-4.56089 -3.36238,-4.56089 -2.13382,0 -2.97441,8.55166 -0.77594,8.55166 -0.77594,30.21586 v 57.58116 q 0,22.80442 0.77594,31.35607 0.84059,7.98155 2.97441,7.98155 2.0045,0 3.36238,-5.70111 z m -25.08848,83.80625 H 229.48152 V 453.28538 h 12.22096 z m 0.45263,-367.15116 v 3.99077 q 0,25.08486 -1.48721,34.77674 -1.4872,9.12177 -5.17289,9.12177 -3.55636,0 -5.04357,-9.12177 -1.48721,-9.69188 -1.48721,-34.77674 v -3.99077 q 0,-24.51475 1.48721,-33.63652 1.48721,-9.69188 5.04357,-9.69188 3.62102,0 5.10823,9.12177 1.55187,9.12177 1.55187,34.20663 z m -18.49304,253.69917 h -17.9758 q 0.12932,21.09409 1.81051,30.21586 1.68119,9.12176 5.36688,9.12176 3.68568,0 9.24654,-5.7011 v 71.83392 q -5.04357,13.11254 -11.38036,13.11254 -7.04807,0 -11.05706,-15.39298 -6.46611,-25.65497 -6.46611,-134.54608 0,-92.3579 4.33229,-123.71398 4.13832,-28.50552 11.89765,-28.50552 7.56536,0 11.25104,29.07563 3.68569,29.07564 3.68569,103.76011 0,28.50553 -0.71127,50.73984 z M 205.55695,568.4477 h 7.04806 v -7.98154 q 0,-18.81365 -0.77593,-26.7952 -0.71128,-8.55165 -2.39247,-8.55165 -1.87517,0 -2.78042,10.26198 -0.8406,9.69188 -1.09924,33.06641 z m -31.29599,-2.85055 v 67.27304 q 0,29.07564 -0.64661,48.45939 -1.29323,45.60884 -8.14731,62.71216 -3.68568,6.27121 -6.46611,6.27121 -2.84509,0 -6.40146,-6.27121 -4.59094,-9.69188 -6.91874,-36.48708 -0.90525,-11.40221 -1.35788,-26.22508 -0.58195,-20.52398 -0.58195,-48.45939 v -67.27304 q 0,-27.93541 0.58195,-48.45939 1.61653,-49.0295 8.27662,-62.71216 3.55637,-6.27121 6.40146,-6.27121 2.78043,0 6.46611,6.27121 4.65561,9.69188 6.78942,37.05719 0.90526,10.26199 1.35789,26.22508 0.64661,18.81365 0.64661,47.88928 z m -6.20747,67.27304 v -67.27304 q -0.12932,-41.04795 -2.19848,-55.87083 -2.06916,-14.82287 -6.85408,-14.82287 -4.91425,0 -6.98341,15.39298 -2.06915,15.39299 -2.06915,55.30072 v 67.27304 q 0,39.90773 2.13381,55.30072 2.19848,15.39298 6.91875,15.39298 4.91425,0 6.9834,-15.39298 2.06916,-15.39299 2.06916,-55.30072 z m -43.38752,-63.28227 v 59.2915 q 0,14.82287 -0.0647,20.52397 0,5.70111 -0.25864,16.53321 -0.25865,10.8321 -0.8406,22.80442 -0.90525,18.81364 -2.52178,30.78597 -1.68119,13.11254 -5.04357,22.2343 -3.29772,8.55166 -7.56536,8.55166 -8.470608,0 -12.608922,-30.78596 -1.68119,-13.11255 -2.521785,-31.35608 -1.1639,-27.36531 -1.1639,-59.29149 v -59.2915 q 0,-13.68265 0.06466,-18.81364 0.129322,-24.51475 1.357884,-45.03873 3.233058,-57.58116 14.872062,-57.58116 9.44053,0 13.06155,35.91696 2.19848,20.52398 2.78043,45.03873 0.45263,17.67342 0.45263,40.47784 z m -12.22096,59.2915 v -59.2915 q 0,-38.1974 -4.07365,-38.1974 -4.07365,0 -4.07365,38.1974 v 59.2915 q 0,38.1974 4.07365,38.1974 4.07365,0 4.07365,-38.1974 z M 80.114531,745.18196 H 69.898069 L 65.307128,600.37389 60.780847,745.18196 h -10.1518 L 40.929874,453.28538 H 53.538799 L 56.96584,597.52334 61.362798,465.2577 h 7.953321 l 4.396958,131.12542 3.36238,-143.09774 h 12.673585 z m -41.383122,-81.5258 v 79.24536 q -4.590942,7.41143 -8.470609,7.41143 -5.172892,0 -8.40595,-24.51475 -3.233057,-24.51475 -3.427041,-73.54425 v -124.8542 h -4.267636 v -74.11437 h 4.655603 l 2.004496,-67.84315 h 9.828495 v 67.84315 h 8.017981 v 74.11437 H 30.648767 V 633.4403 q 0,21.6642 1.034578,27.93541 1.099239,5.70111 3.168395,5.70111 1.293223,0 3.879669,-3.42066 z" />
      </g>
      <text
         xml:space="preserve"
         style="font-size:192px;line-height:1.25;font-family:sans-serif;fill:#000000;fill-opacity:1;stroke:none;stroke-width:0.880342;stroke-miterlimit:4;stroke-dasharray:none;stroke-opacity:1"
         x="123.62814"
         y="1188.8844"
         id="text841-0"><tspan
           sodipodi:role="line"
           id="tspan839-7"
           x="123.62814"
           y="1188.8844"
           style="font-style:normal;font-variant:normal;font-weight:900;font-stretch:normal;font-size:192px;font-family:'Metronic Pro';-inkscape-font-specification:'Metronic Pro Heavy';fill:#000000;fill-opacity:1;stroke:none;stroke-width:0.880342;stroke-miterlimit:4;stroke-dasharray:none;stroke-opacity:1">two <tspan
   style="font-style:normal;font-variant:normal;font-weight:normal;font-stretch:normal;font-family:'Metronic Pro';-inkscape-font-specification:'Metronic Pro';fill:#000000;fill-opacity:1;stroke:none;stroke-width:0.880342;stroke-miterlimit:4;stroke-dasharray:none;stroke-opacity:1"
   id="tspan853-0">o</tspan> eight</tspan></text>
      <text
         xml:space="preserve"
         style="font-size:50.345px;line-height:1.25;font-family:sans-serif;fill:#000007;fill-opacity:1;stroke-width:0.880342"
         x="146.73596"
         y="3446.8652"
         id="text845-7"
         transform="scale(2.9693255,0.33677682)"><tspan
           sodipodi:role="line"
           id="tspan843-9"
           x="146.73596"
           y="3446.8652"
           style="font-size:226.552px;fill:#000007;fill-opacity:1;stroke-width:0.880342">-</tspan></text>
    </g>
  </g>
</svg>
