<?xml version="1.0" encoding="utf-8"?>
<!-- Generator: Adobe Illustrator 19.0.0, SVG Export Plug-In . SVG Version: 6.00 Build 0)  -->
<svg version="1.1" id="layer" xmlns="http://www.w3.org/2000/svg" xmlns:xlink="http://www.w3.org/1999/xlink" x="0px" y="0px"
	 viewBox="-153 -46 652 652" style="enable-background:new -153 -46 652 652;" xml:space="preserve">
<style type="text/css">
	.st0{fill:#F08300;}
	.st1{fill:#D80C1E;}
</style>
<g>
	<path class="st0" d="M194.5,300c-0.5,0.3-1.1,0.7-1.6,1l-0.2,0.1l0.2,0c10.7,2.9,21.3,2.8,23.3-3.9c2.6-8.6-14.4-17.9-22.4-22.3
		c-1.7-0.9-2.5-0.4-1.4,0.9C197.5,281.7,204.7,293.2,194.5,300"/>
	<path d="M286.9,262.1h-9v-7.6h9v-11.2h8.7v11.2H310v7.6h-14.4v22.8c0,5.7,1.6,8.7,8.9,8.7c2.8,0,5.9-0.8,5.9-0.8v7.9
		c-3,0.4-5.3,0.7-8.7,0.7c-13.8,0-14.9-9.9-14.9-15.4V262.1z"/>
	<rect x="403.1" y="254.5" width="9" height="46.9"/>
	<path d="M427.9,277.6c0,12.8,10.5,15.9,15.5,15.9c9.5,0,16.2-5.4,16.2-16.1c0-10.8-7.6-15.7-16.3-15.7
		C438.4,261.8,427.9,264.7,427.9,277.6 M418.8,277.5c0-17.6,14.2-23.6,24.1-23.6c11.2,0,16.7,6.4,16.7,6.4l0.5-5.8h8.2v47h-8.2
		l-0.5-6.2c0,0-5.6,6.2-16.8,6.2C431.6,301.5,418.8,295,418.8,277.5"/>
	<path d="M413.4,243.7c0-3.2-2.6-5.9-5.9-5.9c-3.2,0-5.9,2.6-5.9,5.9c0,3.2,2.6,5.9,5.9,5.9C410.8,249.6,413.4,247,413.4,243.7"/>
	<path d="M396.5,262.6v-7.9c-8.8-0.8-15.1,1.3-19.9,6.4l-0.5-6.5h-8.5v46.9h9v-24.3C376.6,270.4,382.1,261.8,396.5,262.6"/>
	<path d="M312.2,277.7c0-14.7,10.8-24.1,25.3-24.1c14.4,0,24.3,10.5,24.3,23.3c0,0,0,2-0.2,3.8l-40.1,0.2
		c0.4,7.2,8.7,12.7,17.4,12.7c9.3,0,14.8-5.7,14.8-5.7l6.4,5.6c-6.5,6.2-13.6,8.1-21.2,8.1c-15.8,0-26.7-9.2-26.7-23.5V277.7z
		 M351.9,273.7c0-6.4-6.4-11.7-14.3-11.7c-8.4,0-15.4,5.2-16,11.7H351.9z"/>
	<path d="M258.6,273.5c-9-1.6-17.9-2.7-17.9-6.9c0-2.7,2.7-5.1,10.6-5.1c5.9,0,12.6,1.4,14.5,5.5l8.3-3.5
		c-3.2-6.4-12.6-9.5-23.4-9.5c-9.5,0-19.6,3.6-19.6,13.2c0,8.3,7.5,10.9,20,13.2c8.3,1.6,16,2.4,16,6.8c0,2.8-3.8,6.4-13.2,6.4
		c-6.7,0-13.5-1.4-15.5-6.2l-8.1,3.4c3.3,7.4,12.1,11.2,22.2,11.2c20.3,0,24.2-9.7,24.2-15.1C276.8,277.7,267.7,275.1,258.6,273.5"
		/>
	<path d="M0.4,261.8c-8.7,0-16.3,4.9-16.3,15.7c0,10.8,6.7,16.1,16.2,16.1c5,0,15.5-2,15.5-15.9C15.8,263.7,5.3,261.8,0.4,261.8
		 M0.9,301.5c-11.2,0-16.8-7.1-16.8-7.1v19.8h-8.7v-59.6h8.2l0.5,5.8c0,0,5.4-6.4,16.7-6.4c9.9,0,24.1,5,24.1,23.6
		C24.9,296.1,12.1,301.5,0.9,301.5"/>
	<path d="M67.8,277.6c0,12.8,10.5,15.9,15.5,15.9c9.5,0,16.2-5.4,16.2-16.1c0-10.8-7.6-15.7-16.3-15.7
		C78.3,261.8,67.8,264.7,67.8,277.6 M58.7,277.5c0-17.6,14.2-23.6,24.2-23.6c11.2,0,16.7,6.4,16.7,6.4l0.5-5.8h8.2v47H100l-0.5-6.2
		c0,0-5.6,6.2-16.8,6.2C71.5,301.5,58.7,295,58.7,277.5"/>
	<path d="M59.3,262.6v-7.9c-8.8-0.8-15.1,1.3-19.9,6.4l-0.5-6.5h-8.5v46.9h9v-24.3C39.4,270.4,44.9,261.8,59.3,262.6"/>
	<path d="M-103.4,273.5c-9-1.6-17.9-2.7-17.9-6.9c0-2.7,2.7-5.1,10.6-5.1c5.9,0,12.6,1.4,14.5,5.5l8.3-3.5
		c-3.2-6.4-12.6-9.5-23.4-9.5c-9.5,0-19.6,3.6-19.6,13.2c0,8.3,7.5,10.9,20,13.2c8.3,1.6,16,2.4,16,6.8c0,2.8-3.8,6.4-13.2,6.4
		c-6.7,0-13.5-1.4-15.5-6.2l-8.1,3.4c3.3,7.4,12.1,11.2,22.2,11.2c20.3,0,24.2-9.7,24.2-15.1C-85.3,277.7-94.4,275.1-103.4,273.5"/>
	<path d="M-55.5,253.9c-12,0-26.2,6-26.2,23.6c0,17.5,12.8,24.2,26.2,24.2c13.4,0,26.2-6.8,26.2-24.2
		C-29.3,259.9-43.5,253.9-55.5,253.9 M-55.5,293.6c-7.4,0-17.1-3.2-17.1-16c0-13,10.8-15.6,17.1-15.6c6.3,0,17.1,2.6,17.1,15.6
		C-38.4,290.4-48.1,293.6-55.5,293.6"/>
	<path class="st1" d="M192.7,301.1c0,0-13.5,8.5-37.3,8.5c-9.2,0-17-1.4-20.3-4.6c-3.5-3.4-5.3-9.1-5.3-14.4c0-4.5,1.9-8.3,5.8-8.3
		C145.7,282.2,176.9,298.1,192.7,301.1"/>
	<path class="st0" d="M147.8,251.9c0.5-0.3,1.1-0.7,1.6-1l0.2-0.1l-0.2,0c-10.7-2.9-21.3-2.8-23.3,3.9c-2.6,8.6,14.4,17.9,22.4,22.3
		c1.7,0.9,2.5,0.4,1.4-0.9C144.8,270.2,137.6,258.7,147.8,251.9"/>
	<path class="st1" d="M149.6,250.8c0,0,13.5-8.5,37.3-8.5c9.2,0,17,1.4,20.3,4.6c3.5,3.4,5.3,9.1,5.3,14.4c0,4.5-1.9,8.3-5.8,8.3
		C196.6,269.7,165.4,253.8,149.6,250.8"/>
</g>
</svg>
