<?xml version="1.0" encoding="UTF-8" standalone="no"?>
<svg
   xmlns:dc="http://purl.org/dc/elements/1.1/"
   xmlns:cc="http://creativecommons.org/ns#"
   xmlns:rdf="http://www.w3.org/1999/02/22-rdf-syntax-ns#"
   xmlns:svg="http://www.w3.org/2000/svg"
   xmlns="http://www.w3.org/2000/svg"
   xmlns:sodipodi="http://sodipodi.sourceforge.net/DTD/sodipodi-0.dtd"
   xmlns:inkscape="http://www.inkscape.org/namespaces/inkscape"
   version="1.1"
   id="Layer_1"
   x="0px"
   y="0px"
   viewBox="0 0 283.46 140.08"
   xml:space="preserve"
   sodipodi:docname="logo_materialise_grey.svg"
   inkscape:version="1.0.1 (3bc2e813f5, 2020-09-07)"
   width="283.45999"
   height="140.08"><metadata
   id="metadata71"><rdf:RDF><cc:Work
       rdf:about=""><dc:format>image/svg+xml</dc:format><dc:type
         rdf:resource="http://purl.org/dc/dcmitype/StillImage" /><dc:title /></cc:Work></rdf:RDF></metadata><defs
   id="defs69" /><sodipodi:namedview
   pagecolor="#ffffff"
   bordercolor="#666666"
   borderopacity="1"
   objecttolerance="10"
   gridtolerance="10"
   guidetolerance="10"
   inkscape:pageopacity="0"
   inkscape:pageshadow="2"
   inkscape:window-width="1920"
   inkscape:window-height="1001"
   id="namedview67"
   showgrid="false"
   inkscape:zoom="2.6289265"
   inkscape:cx="119.3375"
   inkscape:cy="99.27795"
   inkscape:window-x="1911"
   inkscape:window-y="-9"
   inkscape:window-maximized="1"
   inkscape:current-layer="Layer_1"
   inkscape:document-rotation="0"
   fit-margin-top="0"
   fit-margin-left="0"
   fit-margin-right="0"
   fit-margin-bottom="0" />
<style
   type="text/css"
   id="style2">
	.st0{fill:#FFFFFF;}
	.st1{fill:none;}
</style>
<g
   id="g50"
   style="fill:#999999;fill-opacity:1"
   transform="translate(-38.75,-38.75)">
	<path
   class="st0"
   d="m 39.75,161.95 c -1,0 -1,0 -1,-1.04 0,-1 0,-1 1,-1 1.02,0 1.02,0 1.02,1 0,1.04 0,1.04 -1.02,1.04 z m 0.86,2.64 v 9.38 c 0,0.79 0,0.79 -0.86,0.79 -0.84,0 -0.84,0 -0.84,-0.79 v -9.38 c 0,-0.86 0,-0.86 0.84,-0.86 0.86,0 0.86,0 0.86,0.86 z"
   id="path4"
   style="fill:#999999;fill-opacity:1" />
	<path
   class="st0"
   d="m 51.73,174.76 c -0.85,0 -0.85,0 -0.85,-0.79 v -6.01 c 0,-1.9 -1.26,-2.74 -2.81,-2.74 -1.25,0 -2.35,0.39 -2.9,0.74 v 8.01 c 0,0.79 0,0.79 -0.86,0.79 -0.85,0 -0.85,0 -0.85,-0.79 v -8.55 c 0,-0.39 0.11,-0.57 0.36,-0.75 0.61,-0.44 2.12,-1.14 4.31,-1.14 2.95,0 4.47,1.59 4.47,4.35 v 6.08 c -0.02,0.8 -0.02,0.8 -0.87,0.8 z"
   id="path6"
   style="fill:#999999;fill-opacity:1" />
	<path
   class="st0"
   d="m 63.71,174.76 c -0.85,0 -0.85,0 -0.85,-0.79 v -6.01 c 0,-1.9 -1.26,-2.74 -2.81,-2.74 -1.25,0 -2.35,0.39 -2.9,0.74 v 8.01 c 0,0.79 0,0.79 -0.86,0.79 -0.85,0 -0.85,0 -0.85,-0.79 v -8.55 c 0,-0.39 0.11,-0.57 0.36,-0.75 0.61,-0.44 2.12,-1.14 4.31,-1.14 2.95,0 4.47,1.59 4.47,4.35 v 6.08 c -0.01,0.8 -0.01,0.8 -0.87,0.8 z"
   id="path8"
   style="fill:#999999;fill-opacity:1" />
	<path
   class="st0"
   d="m 76.44,167.81 c 0.07,0.84 0.08,1.99 0,2.86 -0.23,2.45 -2.1,4.28 -4.71,4.28 -2.6,0 -4.47,-1.82 -4.7,-4.28 -0.07,-0.84 -0.07,-1.97 0,-2.8 0.24,-2.57 2.1,-4.33 4.7,-4.33 2.61,0 4.46,1.74 4.71,4.27 z m -7.71,0.09 c -0.06,0.81 -0.07,1.74 0,2.67 0.16,1.62 1.29,2.71 2.99,2.71 1.71,0 2.83,-1.08 2.99,-2.71 0.07,-0.93 0.07,-1.83 0,-2.64 -0.16,-1.61 -1.26,-2.72 -2.99,-2.72 -1.72,-0.01 -2.84,1.09 -2.99,2.69 z"
   id="path10"
   style="fill:#999999;fill-opacity:1" />
	<path
   class="st0"
   d="m 86.98,163.86 c 0.59,0.21 0.68,0.27 0.68,0.45 0,0.1 -0.07,0.35 -0.17,0.59 l -3.45,9.21 c -0.25,0.64 -0.25,0.64 -1.41,0.64 -1.15,0 -1.15,0 -1.39,-0.64 l -3.47,-9.22 c -0.09,-0.28 -0.18,-0.5 -0.18,-0.62 0,-0.17 0.12,-0.23 0.7,-0.43 0.36,-0.12 0.58,-0.17 0.67,-0.17 0.19,0 0.26,0.15 0.38,0.48 l 3.19,8.99 c 0.03,0.08 0.05,0.11 0.12,0.11 0.06,0 0.08,-0.02 0.12,-0.11 l 3.17,-9.01 c 0.11,-0.35 0.17,-0.45 0.37,-0.45 0.1,0.01 0.26,0.05 0.67,0.18 z"
   id="path12"
   style="fill:#999999;fill-opacity:1" />
	<path
   class="st0"
   d="m 97.05,173.8 c -0.57,0.41 -2.12,1.15 -4.28,1.15 -2.76,0 -4.16,-1.44 -4.16,-3.52 0,-1.89 1.36,-3.42 4.16,-3.42 1.02,0 1.85,0.14 2.95,0.44 v -0.86 c 0,-1.7 -0.8,-2.43 -2.6,-2.43 -0.98,0 -1.85,0.28 -2.44,0.53 -0.25,0.11 -0.43,0.17 -0.53,0.17 -0.16,-0.01 -0.25,-0.07 -0.46,-0.57 -0.17,-0.38 -0.22,-0.55 -0.22,-0.65 0,-0.14 0.09,-0.24 0.42,-0.38 0.89,-0.4 2.14,-0.71 3.23,-0.71 2.78,0 4.28,1.17 4.28,3.94 v 5.63 c -0.01,0.38 -0.04,0.45 -0.35,0.68 z m -1.33,-1.21 v -2.69 c -1.07,-0.29 -1.84,-0.46 -2.78,-0.46 -1.83,0 -2.68,0.85 -2.68,1.98 0,1.29 0.9,2 2.69,2 1.04,0 2.19,-0.4 2.77,-0.83 z"
   id="path14"
   style="fill:#999999;fill-opacity:1" />
	<path
   class="st0"
   d="m 103.29,174.95 c -2.24,0 -3.21,-1.51 -3.21,-3.5 v -9.27 c 0,-0.91 -0.01,-0.91 0.83,-0.91 0.87,0 0.87,0 0.87,0.91 v 1.55 h 3.14 c 0.84,0 0.84,0.02 0.84,0.83 0,0.79 0,0.79 -0.84,0.79 h -3.14 v 6.16 c 0,1.07 0.51,1.79 1.66,1.79 0.67,0 1.17,-0.14 1.63,-0.32 0.15,-0.05 0.32,-0.1 0.42,-0.1 0.22,0 0.28,0.15 0.46,0.6 0.18,0.45 0.18,0.51 0.18,0.58 0,0.17 -0.18,0.29 -0.45,0.4 -0.77,0.33 -1.5,0.49 -2.39,0.49 z"
   id="path16"
   style="fill:#999999;fill-opacity:1" />
	<path
   class="st0"
   d="m 116.89,167.81 c 0.07,0.84 0.08,1.99 0,2.86 -0.23,2.45 -2.1,4.28 -4.71,4.28 -2.6,0 -4.47,-1.82 -4.7,-4.28 -0.07,-0.84 -0.07,-1.97 0,-2.8 0.24,-2.57 2.1,-4.33 4.7,-4.33 2.61,0 4.47,1.74 4.71,4.27 z m -7.7,0.09 c -0.06,0.81 -0.07,1.74 0,2.67 0.16,1.62 1.29,2.71 2.99,2.71 1.71,0 2.83,-1.08 2.99,-2.71 0.07,-0.93 0.07,-1.83 0,-2.64 -0.16,-1.61 -1.26,-2.72 -2.99,-2.72 -1.73,-0.01 -2.85,1.09 -2.99,2.69 z"
   id="path18"
   style="fill:#999999;fill-opacity:1" />
	<path
   class="st0"
   d="m 125.15,164.22 c 0,0.06 -0.01,0.16 -0.15,0.63 -0.15,0.49 -0.22,0.62 -0.44,0.62 -0.13,0 -0.34,-0.04 -0.68,-0.13 -0.27,-0.06 -0.6,-0.13 -1.11,-0.13 -1.22,0 -1.83,0.53 -1.83,1.85 v 6.9 c 0,0.78 0,0.78 -0.84,0.78 -0.87,0 -0.87,0 -0.87,-0.78 v -7.1 c 0,-2.09 1.21,-3.34 3.43,-3.34 0.71,0 1.41,0.11 1.88,0.23 0.3,0.11 0.61,0.21 0.61,0.47 z"
   id="path20"
   style="fill:#999999;fill-opacity:1" />
	<path
   class="st0"
   d="m 133.29,164.42 c 0.23,0.19 0.33,0.32 0.33,0.46 0,0.16 -0.07,0.26 -0.34,0.59 -0.27,0.35 -0.38,0.44 -0.55,0.44 -0.16,0 -0.28,-0.11 -0.6,-0.28 -0.56,-0.33 -1.23,-0.48 -1.9,-0.48 -1.39,0 -2.22,0.55 -2.22,1.59 0,0.66 0.39,1.14 1.64,1.45 0.69,0.17 1.36,0.31 1.57,0.36 2.01,0.53 2.95,1.49 2.95,3.03 0,2.06 -1.62,3.36 -3.94,3.36 -1.59,0 -2.83,-0.42 -3.89,-1.23 -0.2,-0.16 -0.35,-0.27 -0.35,-0.46 0,-0.13 0.03,-0.18 0.33,-0.55 0.29,-0.36 0.38,-0.47 0.57,-0.47 0.16,0 0.3,0.12 0.47,0.22 0.74,0.53 1.55,0.9 2.88,0.9 1.46,0 2.25,-0.71 2.25,-1.7 0,-0.74 -0.47,-1.2 -1.66,-1.51 -0.73,-0.18 -0.87,-0.21 -1.65,-0.39 -1.77,-0.43 -2.83,-1.4 -2.83,-2.97 0,-2.01 1.62,-3.25 3.94,-3.25 1.21,0.01 2.35,0.4 3,0.89 z"
   id="path22"
   style="fill:#999999;fill-opacity:1" />
	<path
   class="st0"
   d="m 149.62,163.9 c 0.46,0.17 0.6,0.25 0.6,0.45 0,0.12 -0.06,0.29 -0.2,0.61 l -3.94,9.58 c -0.75,1.8 -1.89,3.34 -2.92,4.01 -0.25,0.16 -0.47,0.28 -0.63,0.28 -0.18,0 -0.26,-0.09 -0.56,-0.53 -0.32,-0.46 -0.37,-0.54 -0.37,-0.67 0,-0.15 0.11,-0.24 0.4,-0.43 0.92,-0.52 1.73,-1.46 2.4,-3.15 l -3.99,-9.07 c -0.15,-0.37 -0.21,-0.52 -0.21,-0.63 0,-0.18 0.18,-0.26 0.63,-0.44 0.39,-0.15 0.64,-0.23 0.74,-0.23 0.21,0 0.26,0.17 0.42,0.57 1.95,4.55 2.36,5.58 3.27,7.71 0.02,0.04 0.04,0.09 0.09,0.09 0.05,0 0.07,-0.05 0.09,-0.09 0.71,-1.83 1.34,-3.45 3.03,-7.76 0.14,-0.35 0.2,-0.52 0.39,-0.52 0.12,0.01 0.3,0.06 0.76,0.22 z"
   id="path24"
   style="fill:#999999;fill-opacity:1" />
	<path
   class="st0"
   d="m 160.91,167.81 c 0.07,0.84 0.08,1.99 0,2.86 -0.23,2.45 -2.1,4.28 -4.71,4.28 -2.6,0 -4.47,-1.82 -4.7,-4.28 -0.07,-0.84 -0.07,-1.97 0,-2.8 0.24,-2.57 2.1,-4.33 4.7,-4.33 2.62,0 4.47,1.74 4.71,4.27 z m -7.7,0.09 c -0.06,0.81 -0.07,1.74 0,2.67 0.16,1.62 1.29,2.71 2.99,2.71 1.71,0 2.83,-1.08 2.99,-2.71 0.07,-0.93 0.07,-1.83 0,-2.64 -0.16,-1.61 -1.26,-2.72 -2.99,-2.72 -1.73,-0.01 -2.84,1.09 -2.99,2.69 z"
   id="path26"
   style="fill:#999999;fill-opacity:1" />
	<path
   class="st0"
   d="m 164.24,163.73 c 0.84,0 0.84,0 0.84,0.89 v 6.04 c 0,1.64 1.06,2.61 2.83,2.61 1.33,0 2.27,-0.41 2.89,-0.8 v -7.86 c 0,-0.87 0,-0.87 0.85,-0.87 0.85,0 0.85,0 0.85,0.87 v 8.41 c 0,0.46 -0.01,0.47 -0.34,0.71 -0.66,0.45 -2.08,1.23 -4.27,1.23 -2.69,0 -4.52,-1.54 -4.52,-4.3 v -6.04 c 0.01,-0.89 0.01,-0.89 0.87,-0.89 z"
   id="path28"
   style="fill:#999999;fill-opacity:1" />
	<path
   class="st0"
   d="m 189.51,166.03 c 0.12,0.33 0.2,0.67 0.2,0.85 0,0.22 -0.14,0.26 -0.63,0.4 -0.39,0.11 -0.55,0.16 -0.67,0.16 -0.2,0 -0.21,-0.19 -0.36,-0.54 -0.48,-1.18 -1.59,-1.71 -2.69,-1.71 -1.77,0 -2.95,1.15 -3.04,2.72 -0.04,0.72 -0.05,1.94 0,2.63 0.15,1.63 1.25,2.73 3.04,2.73 1.12,0 2.19,-0.53 2.67,-1.72 0.15,-0.37 0.18,-0.54 0.38,-0.54 0.09,0 0.28,0.04 0.72,0.18 0.53,0.18 0.63,0.23 0.63,0.42 0,0.16 -0.12,0.55 -0.24,0.84 -0.39,0.9 -1.56,2.48 -4.16,2.48 -2.73,0 -4.58,-1.89 -4.74,-4.3 -0.05,-0.83 -0.05,-2.01 0,-2.85 0.14,-2.49 2.08,-4.26 4.76,-4.26 2.29,0.02 3.72,1.39 4.13,2.51 z"
   id="path30"
   style="fill:#999999;fill-opacity:1" />
	<path
   class="st0"
   d="m 199.91,173.8 c -0.57,0.41 -2.12,1.15 -4.28,1.15 -2.76,0 -4.16,-1.44 -4.16,-3.52 0,-1.89 1.36,-3.42 4.16,-3.42 1.02,0 1.85,0.14 2.95,0.44 v -0.86 c 0,-1.7 -0.8,-2.43 -2.6,-2.43 -0.98,0 -1.85,0.28 -2.44,0.53 -0.25,0.11 -0.43,0.17 -0.53,0.17 -0.16,-0.01 -0.25,-0.07 -0.46,-0.57 -0.17,-0.38 -0.22,-0.55 -0.22,-0.65 0,-0.14 0.09,-0.24 0.42,-0.38 0.88,-0.4 2.14,-0.71 3.23,-0.71 2.78,0 4.28,1.17 4.28,3.94 v 5.63 c 0,0.38 -0.03,0.45 -0.35,0.68 z m -1.33,-1.21 v -2.69 c -1.08,-0.29 -1.84,-0.46 -2.78,-0.46 -1.83,0 -2.68,0.85 -2.68,1.98 0,1.29 0.9,2 2.69,2 1.05,0 2.19,-0.4 2.77,-0.83 z"
   id="path32"
   style="fill:#999999;fill-opacity:1" />
	<path
   class="st0"
   d="m 211.34,174.76 c -0.85,0 -0.85,0 -0.85,-0.79 v -6.01 c 0,-1.9 -1.26,-2.74 -2.81,-2.74 -1.25,0 -2.35,0.39 -2.9,0.74 v 8.01 c 0,0.79 0,0.79 -0.86,0.79 -0.85,0 -0.85,0 -0.85,-0.79 v -8.55 c 0,-0.39 0.11,-0.57 0.36,-0.75 0.61,-0.44 2.12,-1.14 4.31,-1.14 2.95,0 4.47,1.59 4.47,4.35 v 6.08 c -0.02,0.8 -0.02,0.8 -0.87,0.8 z"
   id="path34"
   style="fill:#999999;fill-opacity:1" />
	<path
   class="st0"
   d="m 229.03,166.03 c 0.12,0.33 0.2,0.67 0.2,0.85 0,0.22 -0.14,0.26 -0.63,0.4 -0.39,0.11 -0.55,0.16 -0.67,0.16 -0.2,0 -0.21,-0.19 -0.36,-0.54 -0.48,-1.18 -1.59,-1.71 -2.69,-1.71 -1.77,0 -2.95,1.15 -3.05,2.72 -0.04,0.72 -0.05,1.94 0,2.63 0.15,1.63 1.25,2.73 3.05,2.73 1.12,0 2.19,-0.53 2.67,-1.72 0.15,-0.37 0.18,-0.54 0.38,-0.54 0.1,0 0.28,0.04 0.72,0.18 0.53,0.18 0.63,0.23 0.63,0.42 0,0.16 -0.12,0.55 -0.24,0.84 -0.39,0.9 -1.56,2.48 -4.16,2.48 -2.73,0 -4.58,-1.89 -4.74,-4.3 -0.05,-0.83 -0.05,-2.01 0,-2.85 0.14,-2.49 2.08,-4.26 4.76,-4.26 2.3,0.02 3.72,1.39 4.13,2.51 z"
   id="path36"
   style="fill:#999999;fill-opacity:1" />
	<path
   class="st0"
   d="m 240.64,167.81 c 0.07,0.84 0.08,1.99 0,2.86 -0.23,2.45 -2.1,4.28 -4.71,4.28 -2.6,0 -4.47,-1.82 -4.7,-4.28 -0.07,-0.84 -0.07,-1.97 0,-2.8 0.24,-2.57 2.1,-4.33 4.7,-4.33 2.61,0 4.47,1.74 4.71,4.27 z m -7.7,0.09 c -0.06,0.81 -0.07,1.74 0,2.67 0.16,1.62 1.29,2.71 2.99,2.71 1.71,0 2.83,-1.08 2.99,-2.71 0.07,-0.93 0.07,-1.83 0,-2.64 -0.16,-1.61 -1.26,-2.72 -2.99,-2.72 -1.73,-0.01 -2.85,1.09 -2.99,2.69 z"
   id="path38"
   style="fill:#999999;fill-opacity:1" />
	<path
   class="st0"
   d="m 243.54,163.73 c 0.84,0 0.84,0 0.84,0.89 v 6.04 c 0,1.64 1.06,2.61 2.83,2.61 1.33,0 2.27,-0.41 2.89,-0.8 v -7.86 c 0,-0.87 0,-0.87 0.85,-0.87 0.85,0 0.85,0 0.85,0.87 v 8.41 c 0,0.46 -0.01,0.47 -0.34,0.71 -0.66,0.45 -2.08,1.23 -4.27,1.23 -2.69,0 -4.52,-1.54 -4.52,-4.3 v -6.04 c 0.02,-0.89 0.02,-0.89 0.87,-0.89 z"
   id="path40"
   style="fill:#999999;fill-opacity:1" />
	<path
   class="st0"
   d="m 263.1,174.76 c -0.85,0 -0.85,0 -0.85,-0.79 v -6.01 c 0,-1.9 -1.26,-2.74 -2.81,-2.74 -1.25,0 -2.35,0.39 -2.9,0.74 v 8.01 c 0,0.79 0,0.79 -0.86,0.79 -0.85,0 -0.85,0 -0.85,-0.79 v -8.55 c 0,-0.39 0.11,-0.57 0.36,-0.75 0.61,-0.44 2.12,-1.14 4.31,-1.14 2.95,0 4.47,1.59 4.47,4.35 v 6.08 c -0.01,0.8 -0.01,0.8 -0.87,0.8 z"
   id="path42"
   style="fill:#999999;fill-opacity:1" />
	<path
   class="st0"
   d="m 269.9,174.95 c -2.24,0 -3.21,-1.51 -3.21,-3.5 v -9.27 c 0,-0.91 -0.01,-0.91 0.83,-0.91 0.87,0 0.87,0 0.87,0.91 v 1.55 h 3.14 c 0.84,0 0.84,0.02 0.84,0.83 0,0.79 0,0.79 -0.84,0.79 h -3.14 v 6.16 c 0,1.07 0.51,1.79 1.66,1.79 0.67,0 1.17,-0.14 1.63,-0.32 0.15,-0.05 0.32,-0.1 0.42,-0.1 0.22,0 0.28,0.15 0.46,0.6 0.18,0.45 0.18,0.51 0.18,0.58 0,0.17 -0.18,0.29 -0.45,0.4 -0.76,0.33 -1.5,0.49 -2.39,0.49 z"
   id="path44"
   style="fill:#999999;fill-opacity:1" />
	<path
   class="st0"
   d="m 289.11,167.81 c 0.07,0.84 0.08,1.99 0,2.86 -0.23,2.45 -2.1,4.28 -4.71,4.28 -2.6,0 -4.47,-1.82 -4.7,-4.28 -0.07,-0.84 -0.07,-1.97 0,-2.8 0.24,-2.57 2.1,-4.33 4.7,-4.33 2.61,0 4.46,1.74 4.71,4.27 z m -7.71,0.09 c -0.06,0.81 -0.07,1.74 0,2.67 0.16,1.62 1.29,2.71 2.99,2.71 1.71,0 2.83,-1.08 2.99,-2.71 0.07,-0.93 0.07,-1.83 0,-2.64 -0.16,-1.61 -1.26,-2.72 -2.99,-2.72 -1.72,-0.01 -2.84,1.09 -2.99,2.69 z"
   id="path46"
   style="fill:#999999;fill-opacity:1" />
	<path
   class="st0"
   d="m 299.58,174.76 c -0.85,0 -0.85,0 -0.85,-0.79 v -6.01 c 0,-1.9 -1.26,-2.74 -2.81,-2.74 -1.25,0 -2.35,0.39 -2.9,0.74 v 8.01 c 0,0.79 0,0.79 -0.86,0.79 -0.85,0 -0.85,0 -0.85,-0.79 v -8.55 c 0,-0.39 0.11,-0.57 0.36,-0.75 0.61,-0.44 2.12,-1.14 4.31,-1.14 2.95,0 4.47,1.59 4.47,4.35 v 6.08 c -0.01,0.8 -0.01,0.8 -0.87,0.8 z"
   id="path48"
   style="fill:#999999;fill-opacity:1" />
</g>
<path
   class="st0"
   d="m 138.56,76.03 c -1.49,-0.41 -3.48,-0.68 -5.29,-0.68 -6.05,0 -9.29,3.48 -9.29,9.01 v 17.46 c 0,2.88 0,2.88 3.12,2.88 3.04,0 3.04,0 3.04,-2.88 v -16.4 c 0,-2.88 1.3,-3.99 3.77,-3.99 1.22,0 2.04,0.14 2.74,0.3 0.9,0.22 1.52,0.33 1.85,0.33 0.84,0 1.11,-0.49 1.6,-2.14 0.49,-1.58 0.54,-2.04 0.54,-2.31 0.01,-0.88 -0.89,-1.26 -2.08,-1.58 z m -49.6,22.4 c -0.35,0 -0.92,0.14 -1.55,0.33 -1.06,0.35 -2.28,0.68 -3.69,0.68 -2.66,0 -3.88,-1.57 -3.88,-4.26 V 81.55 h 7.17 c 2.96,0 2.96,0 2.96,-2.77 0,-2.82 0,-2.9 -2.96,-2.9 h -7.17 v -3.63 c 0,-3.23 0,-3.23 -3.1,-3.23 -3.07,0 -3.04,0 -3.04,3.23 v 22.92 c 0,5.7 2.82,10.05 9.2,10.05 2.39,0 4.53,-0.41 6.71,-1.33 1.01,-0.43 1.47,-0.79 1.47,-1.33 0,-0.22 0,-0.49 -0.57,-2.04 -0.58,-1.55 -0.79,-2.09 -1.55,-2.09 z m 17.33,-23.08 c -6.92,0 -11.92,4.37 -12.49,11.4 -0.14,1.71 -0.16,4.75 -0.03,6.81 0.54,6.84 5.19,11.65 13.01,11.65 3.48,0 6.73,-0.95 8.55,-1.82 1.28,-0.6 1.57,-0.98 1.57,-1.44 0,-0.35 -0.14,-0.84 -0.65,-1.93 -0.73,-1.63 -1.06,-2.14 -1.71,-2.14 -0.46,0 -1.06,0.3 -1.93,0.65 -1.74,0.73 -3.64,1.11 -5.86,1.11 -4.13,0 -7.09,-2.2 -7.09,-6.33 v -0.68 h 15.39 c 2.99,0 3.39,-0.3 3.39,-3.56 v -1.52 c 0.01,-7.34 -4.82,-12.2 -12.15,-12.2 z m 6.49,12.11 c -0.03,0.71 0,0.71 -0.68,0.71 H 99.66 c -0.08,-4.64 2.09,-7.55 6.68,-7.55 4.08,-0.01 6.63,2.68 6.44,6.84 z M 249.52,75.35 c -6.92,0 -11.92,4.37 -12.49,11.4 -0.14,1.71 -0.16,4.75 -0.03,6.81 0.54,6.84 5.19,11.65 13.01,11.65 3.48,0 6.73,-0.95 8.55,-1.82 1.28,-0.6 1.57,-0.98 1.57,-1.44 0,-0.35 -0.14,-0.84 -0.65,-1.93 -0.73,-1.63 -1.06,-2.14 -1.71,-2.14 -0.46,0 -1.06,0.3 -1.93,0.65 -1.74,0.73 -3.64,1.11 -5.86,1.11 -4.13,0 -7.09,-2.2 -7.09,-6.33 v -0.68 h 15.4 c 2.99,0 3.39,-0.3 3.39,-3.56 v -1.52 c 0.01,-7.34 -4.83,-12.2 -12.16,-12.2 z m 6.49,12.11 c -0.03,0.71 0,0.71 -0.68,0.71 h -12.44 c -0.08,-4.64 2.09,-7.55 6.68,-7.55 4.08,-0.01 6.63,2.68 6.44,6.84 z M 55.69,75.35 c -2.91,0 -5.78,0.71 -8.01,1.63 -1.41,0.54 -1.76,0.95 -1.76,1.47 0,0.41 0.22,1.03 0.73,2.2 0.76,1.68 1.06,1.9 1.57,1.93 0.41,0.03 1.11,-0.24 1.85,-0.49 1.55,-0.57 3.48,-1.14 5.62,-1.14 4.1,0 5.73,1.66 5.73,5.08 v 2.06 c -2.25,-0.63 -4.32,-0.95 -6.82,-0.95 -7.47,0 -10.81,4.07 -10.81,8.82 0,5.19 3.58,9.26 11.16,9.26 5.92,0 9.77,-1.93 11.27,-2.96 0.95,-0.65 1.14,-1.06 1.14,-2.25 V 86.03 C 67.37,78.6 63.27,75.35 55.69,75.35 Z m 5.73,22.99 c -1.17,0.87 -3.53,1.79 -6.03,1.79 -3.64,0 -5.73,-1.49 -5.73,-4.32 0,-2.36 1.82,-4.26 5.7,-4.26 2.12,0 3.86,0.35 6.05,1 v 5.79 z M 27.83,75.35 c -3.64,0 -6.65,1.44 -8.93,3.07 C 17,76.49 14.61,75.35 11,75.35 7.06,75.35 2.94,77.03 1.14,78.31 0.33,78.91 0,79.48 0,80.67 v 20.99 c 0,3.04 0,3.04 3.07,3.04 3.1,0 3.1,0 3.1,-3.04 V 82.98 c 1.09,-0.68 3.2,-1.55 4.97,-1.55 3.5,0 5.19,1.68 5.19,5.4 v 14.82 c 0,3.04 0,3.04 3.07,3.04 3.07,0 3.07,0 3.07,-3.04 V 86.66 c 0,-1.22 -0.05,-2.28 -0.22,-3.26 1.25,-1.03 3.07,-1.98 5.27,-1.98 3.53,0 5.1,1.87 5.1,5.46 v 14.77 c 0,3.04 0,3.04 3.04,3.04 3.1,0 3.1,0 3.1,-3.04 V 86.53 C 38.74,79.5 35.54,75.35 27.83,75.35 Z m 119.67,0.51 c -3.04,0 -3.04,0 -3.04,3.15 v 22.75 c 0,2.93 0,2.93 3.04,2.93 3.12,0 3.12,0 3.12,-2.93 V 79.01 c 0.01,-3.15 0.01,-3.15 -3.12,-3.15 z m 41.76,-9.96 c -3.07,0 -3.07,0 -3.07,3.23 v 32.64 c 0,2.93 -0.03,2.93 3.07,2.93 3.07,0 3.07,0 3.07,-2.93 V 69.13 c 0,-3.23 -0.03,-3.23 -3.07,-3.23 z m -21.44,9.45 c -2.91,0 -5.78,0.71 -8.01,1.63 -1.41,0.54 -1.76,0.95 -1.76,1.47 0,0.41 0.22,1.03 0.73,2.2 0.76,1.68 1.06,1.9 1.57,1.93 0.41,0.03 1.11,-0.24 1.85,-0.49 1.55,-0.57 3.48,-1.14 5.62,-1.14 4.1,0 5.73,1.66 5.73,5.08 v 2.06 c -2.25,-0.63 -4.32,-0.95 -6.82,-0.95 -7.47,0 -10.81,4.07 -10.81,8.82 0,5.19 3.58,9.26 11.16,9.26 5.92,0 9.77,-1.93 11.27,-2.96 0.95,-0.65 1.14,-1.06 1.14,-2.25 V 86.03 c 0,-7.43 -4.09,-10.68 -11.67,-10.68 z m 5.73,22.99 c -1.17,0.87 -3.53,1.79 -6.03,1.79 -3.64,0 -5.73,-1.49 -5.73,-4.32 0,-2.36 1.82,-4.26 5.7,-4.26 2.12,0 3.86,0.35 6.05,1 v 5.79 z m 28.82,-33.01 c -3.34,0 -3.34,0 -3.34,3.34 0,3.45 0,3.45 3.34,3.45 3.37,0 3.37,0 3.37,-3.45 0,-3.34 0,-3.34 -3.37,-3.34 z m 0,10.53 c -3.04,0 -3.04,0 -3.04,3.15 v 22.75 c 0,2.93 0,2.93 3.04,2.93 3.12,0 3.12,0 3.12,-2.93 V 79.01 c 0.01,-3.15 0.01,-3.15 -3.12,-3.15 z M 147.5,65.33 c -3.34,0 -3.34,0 -3.34,3.34 0,3.45 0,3.45 3.34,3.45 3.37,0 3.37,0 3.37,-3.45 0,-3.34 0,-3.34 -3.37,-3.34 z m 77.37,22.56 c -0.68,-0.16 -2.36,-0.52 -3.83,-0.87 -2.74,-0.65 -3.64,-1.57 -3.64,-2.96 0,-1.95 1.6,-3.12 4.64,-3.12 1.68,0 3.31,0.43 4.67,1.17 0.95,0.49 1.33,0.81 1.87,0.81 0.57,0 0.9,-0.35 1.82,-1.55 0.98,-1.25 1.19,-1.57 1.19,-2.06 0,-0.49 -0.27,-0.87 -1.03,-1.52 -1.82,-1.44 -5.05,-2.44 -8.23,-2.44 -6.19,0 -10.86,3.29 -10.86,8.82 0,4.51 3.2,7.03 7.63,8.12 1.82,0.43 2.52,0.6 4.18,0.98 2.61,0.65 3.58,1.6 3.58,3.07 0,1.93 -1.58,3.37 -4.78,3.37 -2.93,0 -5.08,-0.84 -6.84,-2.04 -0.65,-0.41 -1.14,-0.79 -1.63,-0.79 -0.62,0 -0.95,0.38 -1.93,1.66 -1,1.28 -1.14,1.55 -1.14,1.95 0,0.63 0.49,1.03 1.19,1.55 2.47,1.87 5.65,3.18 10.29,3.18 6.14,0 10.83,-3.42 10.83,-9.01 0.03,-4.38 -2.55,-6.96 -7.98,-8.32 z"
   id="path52"
   style="fill:#999999;fill-opacity:1" />
<path
   class="st0"
   d="M 160.64,38.73 H 283.46 V 0 Z M 93.68,59.84 160.64,38.73 H 93.68 Z"
   id="path54"
   style="fill:#999999;fill-opacity:1" />
<g
   id="g64"
   style="fill:#999999;fill-opacity:1"
   transform="translate(-38.75,-38.75)">
	
	
	
	
</g>
</svg>
