<?xml version="1.0" encoding="UTF-8" standalone="no"?>
<svg
   xmlns:dc="http://purl.org/dc/elements/1.1/"
   xmlns:cc="http://creativecommons.org/ns#"
   xmlns:rdf="http://www.w3.org/1999/02/22-rdf-syntax-ns#"
   xmlns:svg="http://www.w3.org/2000/svg"
   xmlns="http://www.w3.org/2000/svg"
   xmlns:sodipodi="http://sodipodi.sourceforge.net/DTD/sodipodi-0.dtd"
   xmlns:inkscape="http://www.inkscape.org/namespaces/inkscape"
   version="1.1"
   id="layer"
   x="0px"
   y="0px"
   viewBox="0 0 2250.8475 626.89008"
   xml:space="preserve"
   sodipodi:docname="ugent_vub.svg"
   inkscape:version="1.0.1 (3bc2e813f5, 2020-09-07)"
   width="2250.8474"
   height="626.89008"><metadata
   id="metadata13"><rdf:RDF><cc:Work
       rdf:about=""><dc:format>image/svg+xml</dc:format><dc:type
         rdf:resource="http://purl.org/dc/dcmitype/StillImage" /><dc:title></dc:title></cc:Work></rdf:RDF></metadata><defs
   id="defs11" /><sodipodi:namedview
   pagecolor="#ffffff"
   bordercolor="#666666"
   borderopacity="1"
   objecttolerance="10"
   gridtolerance="10"
   guidetolerance="10"
   inkscape:pageopacity="0"
   inkscape:pageshadow="2"
   inkscape:window-width="1920"
   inkscape:window-height="1001"
   id="namedview9"
   showgrid="false"
   inkscape:zoom="0.38834503"
   inkscape:cx="899.11711"
   inkscape:cy="296.61339"
   inkscape:window-x="1911"
   inkscape:window-y="-9"
   inkscape:window-maximized="1"
   inkscape:current-layer="layer"
   fit-margin-top="50"
   fit-margin-left="50"
   fit-margin-right="50"
   fit-margin-bottom="50" />
<style
   type="text/css"
   id="style2">
	.st0{fill:#1E64C8;}
</style>
<g
   id="g6"
   transform="translate(17.1,-19.282065)"
   style="fill:#1e64c8;fill-opacity:1">
	<path
   class="st0"
   d="m 140.5,243.4 h 13 v -84.8 h -13 z m -26.1,0 h 13 v -84.8 h -13 z m -26.2,0 h 13 v -84.8 h -13 z m -26.1,0 h 13 v -84.8 h -13 z m 104.5,0 h 13 v -84.8 h -13 z m 26.1,0 h 13 v -84.8 h -13 z m 26.1,0 h 13 v -84.8 h -13 z m -170,26.1 H 245.2 V 256.4 H 48.8 Z m 183,-123.9 H 62.1 L 49,132.6 h 195.8 z m -196.1,150 h 222.5 v -13 H 35.7 Z M 258.2,111.4 147,72 35.7,111.4 v 13.8 L 147,85.9 258.3,125.3 V 111.4 Z M 143.8,398.2 h -28.1 v 41.9 h -13.1 v -92.3 h 13.1 v 39.3 h 28.1 v -39.3 h 13 v 92.3 h -13 z m 286,89.3 c 5.8,0 11.2,1.9 13.7,3.8 v -11.8 c -2.5,-1.5 -8.6,-3.2 -14.8,-3.2 -17.3,0 -26.9,9.8 -26.9,24.1 0,11.9 5,17.7 13.2,24.6 l 7.4,6.4 c 6.1,5.1 9.9,9.1 9.9,16.8 0,8.9 -5.9,12.5 -14.8,12.5 -6.8,0 -12.4,-1.9 -15.6,-4.1 v 12 c 2.8,1.6 8.8,3.3 16.7,3.3 17.3,0 26.8,-9.8 26.9,-24.2 0,-11.9 -5.1,-17.6 -13.2,-24.6 l -7.4,-6.4 c -6.1,-5.3 -10,-9 -9.9,-16.7 0,-9 5.8,-12.5 14.8,-12.5 m -80.2,1.6 v 32.5 h 6.9 c 10.2,0 17.1,-2.2 17.1,-16.3 0,-14.1 -6.8,-16.2 -17.1,-16.2 z M 336.5,478 h 21.3 c 17.1,0 29.3,6.4 29.3,27.3 0,14.6 -7.1,21.7 -16.1,25 l 19.6,40 h -14.9 l -17.3,-37.6 h -8.8 v 37.6 H 336.5 V 478 M 35.7,542.5 V 478 h 13 v 65.1 c 0,13.6 4.7,17.6 14.2,17.6 9.5,0 14.2,-4 14.2,-17.6 V 478 h 13.1 v 64.5 c 0,21 -8.8,29.5 -27.3,29.5 -18.7,0 -27.2,-8.2 -27.2,-29.5 M 107.1,478 h 15.1 l 29.1,73.6 c -1,-7.5 -1.8,-16.3 -1.8,-24.6 V 478 H 162 v 92.3 h -15.1 l -29.4,-73.8 c 1.1,7.5 2.1,16.5 2.1,24.8 v 49 h -12.5 z m 73.3,92.3 h 13 V 478 h -13 z M 205.6,478 h 13.7 l 11.6,48 c 1.7,7.2 3.8,19.5 5.1,29.1 1.3,-9.7 3.4,-21.9 5.4,-29.1 l 11.5,-48 h 13.2 l -23.4,92.3 H 229 Z m 72.7,0 h 43.1 v 11.1 h -30.1 v 28.3 h 24.3 v 10.9 h -24.3 v 31 h 30.1 v 11 H 278.3 Z M 461,570.3 h 13 V 478 H 461 Z M 32.9,394 c 0,-36.4 9.7,-47.9 33.7,-47.9 6.8,0 14.1,1.8 17.2,3.7 v 12.1 c -3.4,-2 -9.9,-4.1 -16.2,-4.1 -15.3,0 -21.1,5.7 -21.1,36.2 0,30.2 4.1,36.5 17.5,36.5 4.1,0 7.5,-0.6 10.1,-1.3 V 398.4 H 60.3 v -11 H 87 v 49.8 c -2.7,1.7 -13.5,4.7 -23,4.7 C 39,441.8 32.9,428.7 32.9,394 m 142.4,-46.2 h 43.2 v 11.1 h -30.1 v 28.2 h 24.3 V 398 h -24.3 v 31 h 30.1 v 11.1 h -43.2 z m 58.2,0 h 15.1 l 29.1,73.6 c -1,-7.5 -1.8,-16.3 -1.8,-24.6 v -49 h 12.5 v 92.3 h -15.1 l -29.4,-73.8 c 1.1,7.6 2.1,16.5 2.1,24.9 v 49 h -12.5 z m 66.8,0 h 53 v 11.1 h -20 v 81.2 H 320.2 V 358.9 H 300.3 Z M 569.8,532 544.5,478 h 14.4 l 10.9,24.9 c 2.6,6 5,12.4 6.5,18 1.7,-5.7 4.2,-12.1 6.8,-18 L 594,478 h 13.9 l -25.1,54 v 38.3 h -13.1 z m -83.3,-54 h 53 v 11.1 h -20 v 81.2 h -13 v -81.2 h -19.9 z"
   id="path4"
   style="fill:#1e64c8;fill-opacity:1" />
</g>
<style
   type="text/css"
   id="style838">
	.st0{fill:#003399;}
	.st1{fill:#FF6600;}
</style><g
   id="g932"
   transform="matrix(0.71621409,0,0,0.71621409,657.11955,-53.485774)"
   style="stroke-width:1.39623"><polygon
     class="st0"
     points="1016.23,242.48 1000.88,242.48 1058.66,382.47 1071.92,382.47 1130.07,242.48 1114.73,242.48 1065.29,365.04 "
     id="polygon840"
     style="stroke-width:1.39623" /><path
     class="st0"
     d="m 1165.68,255.17 h 22.16 c 10.99,0 22.35,0 31.64,6.63 7.96,5.49 13.07,15.34 13.07,25 0,12.5 -6.63,23.11 -18.19,28.41 -9.28,4.17 -20.65,3.79 -30.5,3.79 h -4.17 l 47.55,63.46 h 17.43 l -39.4,-52.28 c 22.73,-0.57 41.29,-19.13 41.29,-42.05 0,-16.29 -7.58,-30.69 -21.78,-38.83 -11.74,-6.63 -26.52,-6.82 -39.78,-6.82 h -33.34 v 139.99 h 14.02 z"
     id="path842"
     style="stroke-width:1.39623" /><rect
     x="1271.9399"
     y="242.48"
     class="st0"
     width="14.02"
     height="139.99001"
     id="rect844"
     style="stroke-width:1.39623" /><path
     class="st0"
     d="m 1345.06,384.93 c 11.56,0 22.54,-4.55 29.93,-13.83 7.39,-9.09 6.82,-17.05 7.58,-28.03 V 242.48 h -14.02 v 96.42 c 0,5.87 0.19,13.07 -1.7,18.56 -3.22,8.71 -11.18,14.02 -20.46,14.02 -13.26,0 -23.87,-8.9 -24.82,-22.16 h -13.83 c 0.57,20.27 16.86,35.61 37.32,35.61 z"
     id="path846"
     style="stroke-width:1.39623" /><polygon
     class="st0"
     points="1430.68,255.17 1493.19,255.17 1493.19,242.48 1416.66,242.48 1416.66,382.47 1493.19,382.47 1493.19,369.78 1430.68,369.78 1430.68,318.25 1491.11,318.25 1491.11,305.56 1430.68,305.56 "
     id="polygon848"
     style="stroke-width:1.39623" /><path
     class="st0"
     d="m 1094.65,528.28 c 0,10.99 -0.95,22.16 -7.77,31.26 -5.87,8.15 -15.91,12.69 -25.76,12.69 -10.99,0 -21.41,-5.3 -27.28,-14.59 -5.49,-8.71 -6.44,-19.32 -6.44,-29.36 v -85.05 h -14.02 v 85.05 c 0,14.77 1.52,28.79 11.18,40.73 8.9,10.8 22.54,16.67 36.56,16.67 14.4,0 28.41,-6.25 37.13,-17.81 9.09,-11.74 10.42,-25.38 10.42,-39.59 v -85.05 h -14.02 z"
     id="path850"
     style="stroke-width:1.39623" /><polygon
     class="st0"
     points="1240.13,583.21 1254.14,583.21 1254.14,443.22 1240.13,443.22 1240.13,559.34 1161.7,443.22 1142.76,443.22 1142.76,583.21 1156.78,583.21 1156.78,460.08 "
     id="polygon852"
     style="stroke-width:1.39623" /><rect
     x="1288.23"
     y="443.22"
     class="st0"
     width="14.02"
     height="139.99001"
     id="rect854"
     style="stroke-width:1.39623" /><polygon
     class="st0"
     points="1394.88,583.21 1453.03,443.22 1437.69,443.22 1388.25,565.78 1339.19,443.22 1323.84,443.22 1381.62,583.21 "
     id="polygon856"
     style="stroke-width:1.39623" /><polygon
     class="st0"
     points="1488.64,570.52 1488.64,518.99 1549.07,518.99 1549.07,506.3 1488.64,506.3 1488.64,455.91 1551.15,455.91 1551.15,443.22 1474.62,443.22 1474.62,583.21 1551.15,583.21 1551.15,570.52 "
     id="polygon858"
     style="stroke-width:1.39623" /><path
     class="st0"
     d="m 1676.36,488.87 c 0,-16.29 -7.58,-30.69 -21.78,-38.83 -11.74,-6.63 -26.52,-6.82 -39.78,-6.82 h -33.34 v 139.99 h 14.02 v -127.3 h 22.16 c 10.99,0 22.35,0 31.63,6.63 7.96,5.49 13.07,15.34 13.07,25 0,12.5 -6.63,23.11 -18.19,28.41 -9.28,4.17 -20.65,3.79 -30.5,3.79 h -4.17 l 47.55,63.46 h 17.43 l -39.4,-52.28 c 22.74,-0.56 41.3,-19.13 41.3,-42.05 z"
     id="path860"
     style="stroke-width:1.39623" /><path
     class="st0"
     d="m 1764.44,515.39 c -8.14,-7.39 -16.86,-9.09 -26.9,-11.93 -13.64,-3.79 -27.66,-7.77 -27.66,-24.63 0,-13.26 10.42,-24.44 24.06,-24.44 14.4,0 24.63,10.23 25.57,24.44 h 14.59 c 0.19,-21.41 -17.24,-37.89 -38.45,-37.89 -21.97,0 -39.78,15.15 -39.78,37.7 0,10.04 3.98,19.51 11.74,26.14 7.01,6.06 15.91,8.34 24.63,10.61 7.96,2.08 15.15,3.98 21.59,9.28 5.87,4.74 9.66,12.31 9.66,19.89 0,16.1 -13.07,27.66 -28.98,27.66 -15.72,0 -27.66,-12.88 -28.04,-28.22 h -14.96 c -0.19,24.44 19.51,41.67 43.38,41.67 22.73,0 42.62,-17.81 42.62,-40.92 0,-11.17 -4.73,-22.16 -13.07,-29.36 z"
     id="path862"
     style="stroke-width:1.39623" /><rect
     x="1801.37"
     y="443.22"
     class="st0"
     width="14.02"
     height="139.99001"
     id="rect864"
     style="stroke-width:1.39623" /><polygon
     class="st0"
     points="1868.62,583.21 1882.64,583.21 1882.64,455.91 1914.46,455.91 1914.46,443.22 1836.42,443.22 1836.42,455.91 1868.62,455.91 "
     id="polygon866"
     style="stroke-width:1.39623" /><polygon
     class="st0"
     points="2009.93,506.3 1949.5,506.3 1949.5,455.91 2012.01,455.91 2012.01,443.22 1935.48,443.22 1935.48,583.21 2012.01,583.21 2012.01,570.52 1949.5,570.52 1949.5,518.99 2009.93,518.99 "
     id="polygon868"
     style="stroke-width:1.39623" /><rect
     x="2042.3199"
     y="443.22"
     class="st0"
     width="14.02"
     height="139.99001"
     id="rect870"
     style="stroke-width:1.39623" /><polygon
     class="st0"
     points="2109.56,455.91 2109.56,583.21 2123.58,583.21 2123.58,455.91 2155.4,455.91 2155.4,443.22 2077.36,443.22 2077.36,455.91 "
     id="polygon872"
     style="stroke-width:1.39623" /><path
     class="st0"
     d="m 1078.93,709.13 c 9.66,-6.82 15.53,-15.91 15.53,-28.03 0,-12.12 -6.44,-23.49 -16.48,-30.12 -9.66,-6.25 -20.65,-7.01 -31.82,-7.01 h -32.77 v 139.99 h 32.96 c 14.02,-0.19 26.14,0.19 38.45,-7.58 10.8,-6.82 17.24,-19.32 17.24,-32.01 0,-16.11 -8.34,-29.18 -23.11,-35.24 z m -51.53,-52.48 h 16.29 c 8.33,-0.38 18.37,-0.19 25.57,4.17 6.44,3.98 11.18,11.74 11.18,19.32 0,7.77 -4.55,15.91 -11.37,19.51 -7.96,4.36 -17.62,4.17 -26.52,4.17 h -15.15 z m 46.79,110.44 c -8.52,4.36 -20.08,4.36 -29.55,4.17 h -17.24 v -54.74 h 14.78 c 9.28,0 19.51,-0.19 28.22,2.84 10.8,3.79 17.62,13.26 17.43,25.19 0.19,8.9 -5.68,18.37 -13.64,22.54 z"
     id="path874"
     style="stroke-width:1.39623" /><path
     class="st0"
     d="m 1222.32,689.62 c 0,-16.29 -7.58,-30.69 -21.78,-38.83 -11.74,-6.63 -26.52,-6.82 -39.78,-6.82 h -33.34 v 139.99 h 14.02 v -127.3 h 22.16 c 10.99,0 22.35,0 31.63,6.63 7.96,5.49 13.07,15.34 13.07,25 0,12.5 -6.63,23.11 -18.19,28.41 -9.28,4.17 -20.65,3.79 -30.5,3.79 h -4.17 l 47.55,63.46 h 17.43 l -39.4,-52.28 c 22.73,-0.57 41.3,-19.13 41.3,-42.05 z"
     id="path876"
     style="stroke-width:1.39623" /><path
     class="st0"
     d="m 1328.96,729.02 c 0,10.99 -0.95,22.16 -7.77,31.26 -5.87,8.15 -15.91,12.69 -25.76,12.69 -10.99,0 -21.4,-5.3 -27.28,-14.59 -5.49,-8.71 -6.44,-19.32 -6.44,-29.36 v -85.05 h -14.02 v 85.05 c 0,14.77 1.52,28.79 11.18,40.73 8.9,10.8 22.54,16.67 36.56,16.67 14.4,0 28.41,-6.25 37.13,-17.81 9.09,-11.74 10.42,-25.38 10.42,-39.59 v -85.05 h -14.02 z"
     id="path878"
     style="stroke-width:1.39623" /><path
     class="st0"
     d="m 1439.77,716.13 c -8.15,-7.39 -16.86,-9.09 -26.9,-11.93 -13.64,-3.79 -27.66,-7.77 -27.66,-24.63 0,-13.26 10.42,-24.44 24.06,-24.44 14.4,0 24.63,10.23 25.57,24.44 h 14.59 c 0.19,-21.41 -17.24,-37.89 -38.45,-37.89 -21.97,0 -39.78,15.15 -39.78,37.7 0,10.04 3.98,19.51 11.74,26.14 7.01,6.06 15.91,8.34 24.63,10.61 7.96,2.08 15.15,3.98 21.6,9.28 5.87,4.74 9.66,12.31 9.66,19.89 0,16.1 -13.07,27.66 -28.98,27.66 -15.72,0 -27.66,-12.88 -28.04,-28.22 h -14.96 c -0.19,24.44 19.51,41.67 43.38,41.67 22.73,0 42.62,-17.81 42.62,-40.92 -0.01,-11.17 -4.74,-22.16 -13.08,-29.36 z"
     id="path880"
     style="stroke-width:1.39623" /><path
     class="st0"
     d="m 1539.41,716.13 c -8.15,-7.39 -16.86,-9.09 -26.9,-11.93 -13.64,-3.79 -27.66,-7.77 -27.66,-24.63 0,-13.26 10.42,-24.44 24.06,-24.44 14.4,0 24.63,10.23 25.57,24.44 h 14.59 c 0.19,-21.41 -17.24,-37.89 -38.45,-37.89 -21.97,0 -39.78,15.15 -39.78,37.7 0,10.04 3.98,19.51 11.74,26.14 7.01,6.06 15.91,8.34 24.63,10.61 7.96,2.08 15.15,3.98 21.59,9.28 5.87,4.74 9.66,12.31 9.66,19.89 0,16.1 -13.07,27.66 -28.98,27.66 -15.72,0 -27.66,-12.88 -28.03,-28.22 h -14.96 c -0.19,24.44 19.51,41.67 43.38,41.67 22.73,0 42.62,-17.81 42.62,-40.92 -0.01,-11.17 -4.75,-22.16 -13.08,-29.36 z"
     id="path882"
     style="stroke-width:1.39623" /><polygon
     class="st0"
     points="1650.78,707.04 1590.36,707.04 1590.36,656.65 1652.87,656.65 1652.87,643.96 1576.34,643.96 1576.34,783.95 1652.87,783.95 1652.87,771.26 1590.36,771.26 1590.36,719.73 1650.78,719.73 "
     id="polygon884"
     style="stroke-width:1.39623" /><polygon
     class="st0"
     points="1697.19,643.96 1683.17,643.96 1683.17,783.95 1755.16,783.95 1755.16,771.26 1697.19,771.26 "
     id="polygon886"
     style="stroke-width:1.39623" /><path
     class="st0"
     d="m 137.47,340.64 89.89,253.8 h 0.28 l 76.53,-223.59 c 0,0 0.11,-0.32 0.29,-0.78 4.98,-17.01 20.79,-29.43 39.41,-29.43 l 19.19,-0.01 58.88,0.01 V 572.8 c 0.28,11.35 1.51,22.36 6.65,32.64 8.33,14.65 23.72,25.12 41.83,27.26 0.62,0.07 1.24,0.13 1.86,0.19 1.65,0.14 3.31,0.22 5,0.22 v 0 0 c 1.68,0 3.35,-0.08 5,-0.22 0.62,-0.05 1.25,-0.11 1.86,-0.19 18.11,-2.15 33.51,-12.62 41.83,-27.26 5.14,-10.28 6.36,-21.29 6.65,-32.64 V 340.64 h 61.48 v 219.07 c 0,24.66 -1.53,48.3 -11.49,69.57 -18.17,36.01 -56.03,61.28 -100.26,63.08 -1.68,0.07 -3.37,0.11 -5.07,0.11 v 0 0 c -1.7,0 -3.39,-0.04 -5.07,-0.11 -44.23,-1.8 -82.1,-27.07 -100.26,-63.08 C 361.99,608 360.46,584.36 360.46,559.71 V 404.58 h -0.5 l -0.7,2.14 -100.22,277.16 H 197.02 L 137.47,522.71 V 454.43 880.15 H 873.14 V 144.49 H 137.47 Z m 475.81,0 79.78,-0.14 c 31.15,0 62.75,-1.4 91.57,13.01 28.36,14.41 48.34,45.09 48.34,77.16 0,26.96 -12.55,53.46 -37.65,65.54 37.65,12.09 58.57,44.16 58.57,83.2 0,33.47 -15.34,61.83 -41.83,81.81 -27.43,19.99 -62.29,21.85 -95.29,22.77 H 613.22 Z M 227.5,590.69 v 0 l -0.01,0.02 z"
     id="path888"
     style="stroke-width:1.39623" /><path
     class="st0"
     d="m 749.78,467.4 c 12.09,-5.58 19.53,-18.6 19.53,-31.61 0,-13.95 -8.83,-25.1 -21.38,-30.21 -9.42,-4.07 -28.35,-3.25 -41.83,-3.25 l -28.95,-0.05 v 70.31 l 29.42,-0.07 c 13.46,-0.01 31.12,0.46 43.21,-5.12 z"
     id="path890"
     style="stroke-width:1.39623" /><path
     class="st0"
     d="m 773.49,610.11 c 11.62,-7.9 16.73,-19.06 16.73,-33.47 0,-16.73 -7.9,-26.96 -22.78,-35.33 -14.41,-7.44 -29.75,-6.97 -45.09,-6.97 h -45.22 v 87.83 l 43.82,0.02 c 18.6,0 35.8,-0.92 52.54,-12.08 z"
     id="path892"
     style="stroke-width:1.39623" /><polygon
     class="st1"
     points="137.47,408.92 137.47,340.64 68.4,340.64 137.47,522.8 "
     id="polygon894"
     style="stroke-width:1.39623" /></g><style
   type="text/css"
   id="style944">
	.st0{fill:#1E64C8;}
</style></svg>
