<?xml version="1.0" encoding="utf-8"?>
<!-- Generator: Adobe Illustrator 19.2.1, SVG Export Plug-In . SVG Version: 6.00 Build 0)  -->
<svg version="1.1" id="layer" xmlns="http://www.w3.org/2000/svg" xmlns:xlink="http://www.w3.org/1999/xlink" x="0px" y="0px"
	 viewBox="0 0 652 652" style="enable-background:new 0 0 652 652;" xml:space="preserve">
<style type="text/css">
	.st0{fill:#1E64C8;}
</style>
<g>
	<path class="st0" d="M140.5,243.4h13v-84.8h-13V243.4z M114.4,243.4h13v-84.8h-13V243.4z M88.2,243.4h13v-84.8h-13L88.2,243.4z
		 M62.1,243.4h13v-84.8h-13V243.4z M166.6,243.4h13v-84.8h-13V243.4z M192.7,243.4h13v-84.8h-13V243.4z M218.8,243.4h13v-84.8h-13
		V243.4z M48.8,269.5h196.4v-13.1H48.8L48.8,269.5z M231.8,145.6H62.1l-13.1-13h195.8L231.8,145.6z M35.7,295.6h222.5v-13H35.7
		L35.7,295.6z M258.2,111.4L147,72L35.7,111.4v13.8L147,85.9l111.3,39.4V111.4z M143.8,398.2h-28.1v41.9h-13.1v-92.3h13.1v39.3h28.1
		v-39.3h13v92.3h-13V398.2z M429.8,487.5c5.8,0,11.2,1.9,13.7,3.8v-11.8c-2.5-1.5-8.6-3.2-14.8-3.2c-17.3,0-26.9,9.8-26.9,24.1
		c0,11.9,5,17.7,13.2,24.6l7.4,6.4c6.1,5.1,9.9,9.1,9.9,16.8c0,8.9-5.9,12.5-14.8,12.5c-6.8,0-12.4-1.9-15.6-4.1v12
		c2.8,1.6,8.8,3.3,16.7,3.3c17.3,0,26.8-9.8,26.9-24.2c0-11.9-5.1-17.6-13.2-24.6l-7.4-6.4c-6.1-5.3-10-9-9.9-16.7
		C415,491,420.8,487.5,429.8,487.5 M349.6,489.1v32.5h6.9c10.2,0,17.1-2.2,17.1-16.3c0-14.1-6.8-16.2-17.1-16.2H349.6z M336.5,478
		h21.3c17.1,0,29.3,6.4,29.3,27.3c0,14.6-7.1,21.7-16.1,25l19.6,40h-14.9l-17.3-37.6h-8.8v37.6h-13.1L336.5,478 M35.7,542.5V478h13
		v65.1c0,13.6,4.7,17.6,14.2,17.6c9.5,0,14.2-4,14.2-17.6V478h13.1v64.5c0,21-8.8,29.5-27.3,29.5C44.2,572,35.7,563.8,35.7,542.5
		 M107.1,478h15.1l29.1,73.6c-1-7.5-1.8-16.3-1.8-24.6v-49h12.5v92.3h-15.1l-29.4-73.8c1.1,7.5,2.1,16.5,2.1,24.8v49h-12.5
		L107.1,478z M180.4,570.3h13V478h-13V570.3z M205.6,478h13.7l11.6,48c1.7,7.2,3.8,19.5,5.1,29.1c1.3-9.7,3.4-21.9,5.4-29.1l11.5-48
		h13.2l-23.4,92.3h-13.7L205.6,478z M278.3,478h43.1v11.1h-30.1v28.3h24.3v10.9h-24.3v31h30.1v11h-43.1V478z M461,570.3h13V478h-13
		V570.3z M32.9,394c0-36.4,9.7-47.9,33.7-47.9c6.8,0,14.1,1.8,17.2,3.7v12.1c-3.4-2-9.9-4.1-16.2-4.1c-15.3,0-21.1,5.7-21.1,36.2
		c0,30.2,4.1,36.5,17.5,36.5c4.1,0,7.5-0.6,10.1-1.3v-30.8H60.3v-11H87v49.8c-2.7,1.7-13.5,4.7-23,4.7C39,441.8,32.9,428.7,32.9,394
		 M175.3,347.8h43.2v11.1h-30.1v28.2h24.3V398h-24.3v31h30.1v11.1h-43.2V347.8z M233.5,347.8h15.1l29.1,73.6
		c-1-7.5-1.8-16.3-1.8-24.6v-49h12.5v92.3h-15.1l-29.4-73.8c1.1,7.6,2.1,16.5,2.1,24.9v49h-12.5L233.5,347.8z M300.3,347.8h53v11.1
		h-20v81.2h-13.1v-81.2h-19.9L300.3,347.8z M569.8,532l-25.3-54h14.4l10.9,24.9c2.6,6,5,12.4,6.5,18c1.7-5.7,4.2-12.1,6.8-18
		l10.9-24.9h13.9l-25.1,54v38.3h-13.1L569.8,532z M486.5,478h53v11.1h-20v81.2h-13v-81.2h-19.9L486.5,478z"/>
</g>
</svg>
